<svg width="60" height="60" viewBox="0 0 60 60" fill="none" xmlns="http://www.w3.org/2000/svg">
<g clip-path="url(#clip0_63_3912)">
<path opacity="0.6" d="M36.475 20L30 26.475L23.525 20L20 23.525L26.475 30L20 36.475L23.525 40L30 33.525L36.475 40L40 36.475L33.525 30L40 23.525L36.475 20ZM30 5C16.175 5 5 16.175 5 30C5 43.825 16.175 55 30 55C43.825 55 55 43.825 55 30C55 16.175 43.825 5 30 5ZM30 50C18.975 50 10 41.025 10 30C10 18.975 18.975 10 30 10C41.025 10 50 18.975 50 30C50 41.025 41.025 50 30 50Z" fill="white"/>
</g>
<defs>
<clipPath id="clip0_63_3912">
<rect width="60" height="60" fill="white"/>
</clipPath>
</defs>
</svg>
