<svg width="400" height="80" viewBox="0 0 400 80" fill="none" xmlns="http://www.w3.org/2000/svg">
<path d="M90.6719 41.9531C90.8542 41.9531 90.9453 41.862 90.9453 41.6797V37.0312C90.9453 36.8229 90.8542 36.7188 90.6719 36.7188H73.5625C73.3802 36.7188 73.2891 36.8229 73.2891 37.0312V41.6797C73.2891 41.862 73.3802 41.9531 73.5625 41.9531H90.6719ZM73.2891 51.4062C73.2891 51.5885 73.3802 51.6797 73.5625 51.6797H90.6719C90.8542 51.6797 90.9453 51.5885 90.9453 51.4062V46.5625C90.9453 46.3802 90.8542 46.2891 90.6719 46.2891H73.5625C73.3802 46.2891 73.2891 46.3802 73.2891 46.5625V51.4062ZM99.6172 25.4688C99.6172 26.0938 99.3828 26.6406 98.9141 27.1094C98.4714 27.5521 97.9375 27.7734 97.3125 27.7734H84.8125C84.6302 27.7734 84.513 27.8646 84.4609 28.0469C84.1484 29.2448 83.7708 30.5729 83.3281 32.0312C83.3021 32.1094 83.3021 32.1745 83.3281 32.2266C83.3802 32.2786 83.4453 32.3047 83.5234 32.3047H93.7188C94.3698 32.3047 94.9167 32.5391 95.3594 33.0078C95.8021 33.4505 96.0234 33.9844 96.0234 34.6094V56.1719C96.0234 56.8229 95.8021 57.3698 95.3594 57.8125C94.9167 58.2552 94.3698 58.4766 93.7188 58.4766H93.0938C92.4948 58.4766 91.987 58.2682 91.5703 57.8516C91.1536 57.4349 90.9453 56.9401 90.9453 56.3672C90.9453 56.1849 90.8542 56.0938 90.6719 56.0938H73.5625C73.3802 56.0938 73.2891 56.1849 73.2891 56.3672C73.2891 56.9401 73.0807 57.4349 72.6641 57.8516C72.2474 58.2682 71.7396 58.4766 71.1406 58.4766H70.75C70.099 58.4766 69.5521 58.2552 69.1094 57.8125C68.6667 57.3698 68.4453 56.8229 68.4453 56.1719V34.6094C68.4453 33.9844 68.6667 33.4505 69.1094 33.0078C69.5521 32.5391 70.099 32.3047 70.75 32.3047H77.8984C78.1068 32.3047 78.224 32.2135 78.25 32.0312C78.4844 30.8333 78.6927 29.5052 78.875 28.0469C78.901 27.8646 78.8229 27.7734 78.6406 27.7734H66.7266C66.1016 27.7734 65.5547 27.5521 65.0859 27.1094C64.6432 26.6406 64.4219 26.0938 64.4219 25.4688V25.4297C64.4219 24.7786 64.6432 24.2318 65.0859 23.7891C65.5547 23.3464 66.1016 23.125 66.7266 23.125H97.3125C97.9375 23.125 98.4714 23.3464 98.9141 23.7891C99.3828 24.2318 99.6172 24.7786 99.6172 25.4297V25.4688ZM132.469 54.3359C132.495 54.5443 132.612 54.6484 132.82 54.6484H133.211C133.419 54.6224 133.562 54.5703 133.641 54.4922C133.719 54.4141 133.758 54.2839 133.758 54.1016V47.8906C133.758 47.7083 133.667 47.6172 133.484 47.6172H130.008C129.956 47.6172 129.904 47.6432 129.852 47.6953C129.826 47.7474 129.826 47.7995 129.852 47.8516C131.128 50.0911 132 52.2526 132.469 54.3359ZM124.148 50.1172C124.148 50.2995 124.253 50.3906 124.461 50.3906L126.844 50.2344C127 50.2344 127.052 50.1693 127 50.0391C126.896 49.8307 126.844 49.6094 126.844 49.375C126.844 49.1667 126.883 48.9583 126.961 48.75C127.169 48.3333 127.495 48.0729 127.938 47.9688L129.07 47.6562C129.096 47.6562 129.109 47.6562 129.109 47.6562C129.109 47.6302 129.096 47.6172 129.07 47.6172H124.461C124.253 47.6172 124.148 47.7083 124.148 47.8906V50.1172ZM113.172 38.7109C113.172 38.8932 113.263 38.9844 113.445 38.9844H119.344C119.552 38.9844 119.656 38.8932 119.656 38.7109V37.4609C119.656 37.2526 119.552 37.1484 119.344 37.1484H113.445C113.263 37.1484 113.172 37.2526 113.172 37.4609V38.7109ZM113.445 32.4219C113.263 32.4219 113.172 32.526 113.172 32.7344V33.9453C113.172 34.1536 113.263 34.2578 113.445 34.2578H119.344C119.552 34.2578 119.656 34.1536 119.656 33.9453V32.7344C119.656 32.526 119.552 32.4219 119.344 32.4219H113.445ZM130.477 34.2578C130.659 34.2578 130.75 34.1536 130.75 33.9453V32.7344C130.75 32.526 130.659 32.4219 130.477 32.4219H124.461C124.253 32.4219 124.148 32.526 124.148 32.7344V33.9453C124.148 34.1536 124.253 34.2578 124.461 34.2578H130.477ZM130.477 38.9844C130.659 38.9844 130.75 38.8932 130.75 38.7109V37.4609C130.75 37.2526 130.659 37.1484 130.477 37.1484H124.461C124.253 37.1484 124.148 37.2526 124.148 37.4609V38.7109C124.148 38.8932 124.253 38.9844 124.461 38.9844H130.477ZM136.062 43.6719C136.688 43.6719 137.221 43.9062 137.664 44.375C138.133 44.8177 138.367 45.3516 138.367 45.9766V54.1406C138.367 55.1562 138.263 55.9245 138.055 56.4453C137.846 56.9922 137.443 57.4349 136.844 57.7734C136.245 58.0859 135.359 58.2812 134.188 58.3594C134.135 58.3594 134.083 58.3594 134.031 58.3594C133.432 58.3594 132.898 58.1641 132.43 57.7734C131.883 57.3828 131.492 56.849 131.258 56.1719C131.206 55.9896 131.141 55.8073 131.062 55.625C130.984 55.4688 130.867 55.4167 130.711 55.4688H130.672C130.516 55.5208 130.372 55.5469 130.242 55.5469C129.93 55.5469 129.617 55.4557 129.305 55.2734C128.888 54.987 128.615 54.6094 128.484 54.1406C128.432 53.9844 128.328 53.9193 128.172 53.9453C127 54.0234 122.495 54.3099 114.656 54.8047C114.604 54.8047 114.552 54.8047 114.5 54.8047C114.005 54.8047 113.562 54.6354 113.172 54.2969C112.703 53.8802 112.469 53.3594 112.469 52.7344C112.469 52.2656 112.625 51.849 112.938 51.4844C113.302 51.0677 113.758 50.8464 114.305 50.8203C114.826 50.8203 115.646 50.7943 116.766 50.7422C117.911 50.6901 118.771 50.651 119.344 50.625C119.552 50.599 119.656 50.4948 119.656 50.3125V47.8906C119.656 47.7083 119.552 47.6172 119.344 47.6172H110.945C110.737 47.6172 110.633 47.7083 110.633 47.8906V56.2109C110.633 56.8359 110.411 57.3698 109.969 57.8125C109.526 58.2552 108.992 58.4766 108.367 58.4766C107.742 58.4766 107.208 58.2552 106.766 57.8125C106.323 57.3698 106.102 56.8359 106.102 56.2109V45.9766C106.102 45.3516 106.323 44.8177 106.766 44.375C107.234 43.9062 107.781 43.6719 108.406 43.6719H119.344C119.552 43.6719 119.656 43.5807 119.656 43.3984V42.3828C119.656 42.1745 119.552 42.0703 119.344 42.0703H110.906C110.281 42.0703 109.734 41.849 109.266 41.4062C108.823 40.9635 108.602 40.4167 108.602 39.7656V31.6406C108.602 30.9896 108.823 30.4427 109.266 30C109.734 29.5573 110.281 29.3359 110.906 29.3359H133.25C133.901 29.3359 134.448 29.5573 134.891 30C135.333 30.4427 135.555 30.9896 135.555 31.6406V39.7656C135.555 40.4167 135.333 40.9635 134.891 41.4062C134.448 41.849 133.901 42.0703 133.25 42.0703H124.461C124.253 42.0703 124.148 42.1745 124.148 42.3828V43.3984C124.148 43.5807 124.253 43.6719 124.461 43.6719H136.062ZM131.297 22.8906C131.297 23.0469 131.362 23.125 131.492 23.125H137.352C137.898 23.125 138.354 23.3203 138.719 23.7109C139.109 24.1016 139.305 24.5703 139.305 25.1172C139.305 25.6641 139.109 26.1328 138.719 26.5234C138.354 26.888 137.898 27.0703 137.352 27.0703H131.453C131.349 27.0703 131.297 27.1354 131.297 27.2656C131.297 27.6823 131.141 28.0339 130.828 28.3203C130.542 28.6068 130.19 28.75 129.773 28.75H128.094C127.677 28.75 127.326 28.6068 127.039 28.3203C126.753 28.0339 126.609 27.6823 126.609 27.2656C126.609 27.1354 126.544 27.0703 126.414 27.0703H117.352C117.221 27.0703 117.156 27.1354 117.156 27.2656C117.156 27.6823 117.013 28.0339 116.727 28.3203C116.44 28.6068 116.089 28.75 115.672 28.75H113.953C113.562 28.75 113.211 28.6068 112.898 28.3203C112.612 28.0339 112.469 27.6823 112.469 27.2656C112.469 27.1354 112.404 27.0703 112.273 27.0703H106.531C105.984 27.0703 105.516 26.888 105.125 26.5234C104.76 26.1328 104.578 25.6641 104.578 25.1172C104.578 24.5703 104.76 24.1016 105.125 23.7109C105.516 23.3203 105.984 23.125 106.531 23.125H112.273C112.404 23.125 112.469 23.0469 112.469 22.8906C112.469 22.3958 112.638 21.9792 112.977 21.6406C113.341 21.3021 113.771 21.1328 114.266 21.1328H115.398C115.867 21.1328 116.271 21.3021 116.609 21.6406C116.974 21.9792 117.156 22.3958 117.156 22.8906C117.156 23.0469 117.234 23.125 117.391 23.125H126.375C126.531 23.125 126.609 23.0469 126.609 22.8906C126.609 22.3958 126.779 21.9792 127.117 21.6406C127.456 21.3021 127.872 21.1328 128.367 21.1328H129.5C129.995 21.1328 130.411 21.3021 130.75 21.6406C131.115 21.9792 131.297 22.3958 131.297 22.8906ZM153.523 24.4531C154.07 24.7656 154.409 25.2214 154.539 25.8203C154.565 25.9766 154.578 26.1328 154.578 26.2891C154.578 26.7057 154.435 27.1094 154.148 27.5L154.031 27.6172C153.667 28.138 153.172 28.4505 152.547 28.5547C152.391 28.5807 152.234 28.5938 152.078 28.5938C151.609 28.5938 151.167 28.4635 150.75 28.2031C149.917 27.6823 148.771 27.0052 147.312 26.1719C146.792 25.8854 146.479 25.4557 146.375 24.8828C146.349 24.7526 146.336 24.6224 146.336 24.4922C146.336 24.0755 146.466 23.6979 146.727 23.3594C147.117 22.8646 147.625 22.5391 148.25 22.3828C148.458 22.3568 148.654 22.3438 148.836 22.3438C149.253 22.3438 149.656 22.4349 150.047 22.6172C151.427 23.3464 152.586 23.9583 153.523 24.4531ZM151.57 35.3125C152.143 35.599 152.495 36.0547 152.625 36.6797C152.677 36.8359 152.703 37.0052 152.703 37.1875C152.703 37.6042 152.573 37.9948 152.312 38.3594L152.234 38.4766C151.896 38.9974 151.414 39.3229 150.789 39.4531C150.607 39.5052 150.424 39.5312 150.242 39.5312C149.826 39.5312 149.422 39.4141 149.031 39.1797C148.094 38.6068 146.896 37.9167 145.438 37.1094C144.917 36.849 144.604 36.4323 144.5 35.8594C144.448 35.7031 144.422 35.5599 144.422 35.4297C144.422 35.0391 144.552 34.6745 144.812 34.3359C145.177 33.8151 145.659 33.4766 146.258 33.3203C146.492 33.2682 146.714 33.2422 146.922 33.2422C147.312 33.2422 147.69 33.3333 148.055 33.5156C149.513 34.2448 150.685 34.8438 151.57 35.3125ZM149.305 56.0938C148.966 56.6146 148.497 56.9271 147.898 57.0312C147.768 57.0312 147.651 57.0312 147.547 57.0312C147.078 57.0312 146.661 56.888 146.297 56.6016L145.867 56.25C145.372 55.8333 145.073 55.3125 144.969 54.6875C144.943 54.5573 144.93 54.4271 144.93 54.2969C144.93 53.8021 145.073 53.3333 145.359 52.8906C147.208 50.1302 148.953 47.2396 150.594 44.2188C150.88 43.724 151.31 43.4245 151.883 43.3203C151.987 43.2943 152.091 43.2812 152.195 43.2812C152.638 43.2812 153.029 43.4375 153.367 43.75L153.445 43.8281C153.966 44.2969 154.279 44.8698 154.383 45.5469C154.435 45.7292 154.461 45.9115 154.461 46.0938C154.461 46.5625 154.344 47.0182 154.109 47.4609C152.495 50.5339 150.893 53.4115 149.305 56.0938ZM173.758 52.5391C173.94 52.5391 174.031 52.4349 174.031 52.2266V46.9141C174.031 46.7318 173.94 46.6406 173.758 46.6406H162.312C162.104 46.6406 162 46.7318 162 46.9141V52.2266C162 52.4349 162.104 52.5391 162.312 52.5391H173.758ZM179.891 33.3984C180.333 33.8411 180.555 34.375 180.555 35C180.555 35.625 180.333 36.1589 179.891 36.6016C179.448 37.0443 178.914 37.2656 178.289 37.2656H170.711C170.503 37.2656 170.398 37.3698 170.398 37.5781V42.0312C170.398 42.2135 170.503 42.3047 170.711 42.3047H176.258C176.883 42.3047 177.417 42.5391 177.859 43.0078C178.328 43.4505 178.562 43.9844 178.562 44.6094V56.0156C178.562 56.6406 178.341 57.1745 177.898 57.6172C177.456 58.0599 176.922 58.2812 176.297 58.2812H175.32C174.956 58.2812 174.643 58.151 174.383 57.8906C174.148 57.6562 174.031 57.3568 174.031 56.9922C174.031 56.888 173.979 56.8359 173.875 56.8359H162.195C162.065 56.8359 162 56.901 162 57.0312C162 57.4219 161.857 57.7604 161.57 58.0469C161.284 58.3333 160.945 58.4766 160.555 58.4766H159.852C159.279 58.4766 158.771 58.2682 158.328 57.8516C157.911 57.4349 157.703 56.9271 157.703 56.3281V44.6094C157.703 43.9844 157.924 43.4505 158.367 43.0078C158.836 42.5391 159.383 42.3047 160.008 42.3047H165.594C165.776 42.3047 165.867 42.2135 165.867 42.0312V37.5781C165.867 37.3698 165.776 37.2656 165.594 37.2656H157.508C156.883 37.2656 156.349 37.0443 155.906 36.6016C155.464 36.1589 155.242 35.625 155.242 35C155.242 34.375 155.464 33.8411 155.906 33.3984C156.349 32.9557 156.883 32.7344 157.508 32.7344H165.594C165.776 32.7344 165.867 32.6302 165.867 32.4219V28.3203C165.867 28.138 165.776 28.0599 165.594 28.0859C164.005 28.3203 162.208 28.5417 160.203 28.75C160.125 28.75 160.047 28.75 159.969 28.75C159.474 28.75 159.018 28.6068 158.602 28.3203C158.107 27.9557 157.755 27.474 157.547 26.875C157.495 26.6927 157.469 26.4974 157.469 26.2891C157.469 26.0026 157.547 25.7161 157.703 25.4297C157.964 24.9609 158.367 24.7005 158.914 24.6484C164.747 23.9714 169.526 23.0469 173.25 21.875C173.641 21.7448 174.031 21.6797 174.422 21.6797C174.708 21.6797 174.995 21.7188 175.281 21.7969C175.984 21.9531 176.57 22.2786 177.039 22.7734L177.508 23.2422C177.794 23.5286 177.938 23.8542 177.938 24.2188C177.938 24.349 177.924 24.4792 177.898 24.6094C177.768 25.1302 177.456 25.4688 176.961 25.625C175.112 26.224 173.016 26.7448 170.672 27.1875C170.49 27.2135 170.398 27.3307 170.398 27.5391V32.4219C170.398 32.6302 170.503 32.7344 170.711 32.7344H178.289C178.914 32.7344 179.448 32.9557 179.891 33.3984ZM204.617 51.7578C204.409 51.7578 204.305 51.862 204.305 52.0703V53.3203C204.305 53.5026 204.409 53.5938 204.617 53.5938H208.523C208.706 53.5938 208.797 53.5026 208.797 53.3203V52.0703C208.797 51.862 208.706 51.7578 208.523 51.7578H204.617ZM208.523 43.7891C208.706 43.7891 208.797 43.6979 208.797 43.5156V42.3438C208.797 42.1354 208.706 42.0312 208.523 42.0312H204.617C204.409 42.0312 204.305 42.1354 204.305 42.3438V43.5156C204.305 43.6979 204.409 43.7891 204.617 43.7891H208.523ZM208.523 48.6719C208.706 48.6719 208.797 48.5807 208.797 48.3984V47.2266C208.797 47.0182 208.706 46.9141 208.523 46.9141H204.617C204.409 46.9141 204.305 47.0182 204.305 47.2266V48.3984C204.305 48.5807 204.409 48.6719 204.617 48.6719H208.523ZM189.148 26.875C188.94 26.875 188.836 26.9792 188.836 27.1875V32.1484C188.836 32.3307 188.94 32.4219 189.148 32.4219H192.508C192.69 32.4219 192.781 32.3307 192.781 32.1484V27.1875C192.781 26.9792 192.69 26.875 192.508 26.875H189.148ZM218.602 53.5938C219.148 53.5938 219.604 53.7891 219.969 54.1797C220.333 54.5443 220.516 54.987 220.516 55.5078C220.516 56.0286 220.333 56.4714 219.969 56.8359C219.604 57.2005 219.148 57.3828 218.602 57.3828H204.422C204.344 57.3828 204.305 57.4219 204.305 57.5C204.305 57.7604 204.214 57.9818 204.031 58.1641C203.875 58.3464 203.667 58.4375 203.406 58.4375H202.195C201.596 58.4375 201.089 58.2292 200.672 57.8125C200.255 57.3958 200.047 56.888 200.047 56.2891V46.4844C200.047 46.4323 200.021 46.4062 199.969 46.4062C199.943 46.3802 199.904 46.3802 199.852 46.4062C199.513 46.7708 199.096 46.9531 198.602 46.9531C198.576 46.9531 198.536 46.9531 198.484 46.9531C197.964 46.9271 197.508 46.7057 197.117 46.2891C196.727 45.8724 196.362 45.5078 196.023 45.1953C195.867 45.0651 195.698 45 195.516 45H193.758C193.576 45 193.484 45.1042 193.484 45.3125V50.3516C193.484 50.5339 193.576 50.612 193.758 50.5859C194.174 50.4818 194.891 50.3125 195.906 50.0781C196.062 50.0521 196.206 50.0391 196.336 50.0391C196.701 50.0391 197.052 50.1562 197.391 50.3906C197.833 50.7031 198.081 51.1328 198.133 51.6797C198.159 51.7839 198.172 51.875 198.172 51.9531C198.172 52.4219 198.029 52.8646 197.742 53.2812C197.404 53.75 196.948 54.0625 196.375 54.2188C192.391 55.1562 188.862 55.9766 185.789 56.6797C185.633 56.7057 185.477 56.7188 185.32 56.7188C184.904 56.7188 184.513 56.6016 184.148 56.3672C183.654 56.0286 183.354 55.5599 183.25 54.9609L183.133 54.4141C183.107 54.3099 183.094 54.2057 183.094 54.1016C183.094 53.7891 183.198 53.4896 183.406 53.2031C183.667 52.8125 184.018 52.5781 184.461 52.5C184.617 52.474 184.695 52.3958 184.695 52.2656V40.7812C184.695 40.3125 184.865 39.9089 185.203 39.5703C185.542 39.2057 185.945 39.0234 186.414 39.0234C186.909 39.0234 187.326 39.2057 187.664 39.5703C188.029 39.9089 188.211 40.3125 188.211 40.7812V51.4844C188.211 51.6667 188.302 51.7318 188.484 51.6797L189.383 51.4844C189.591 51.4583 189.695 51.3411 189.695 51.1328V36.6016C189.695 36.4193 189.591 36.3281 189.383 36.3281H187.352C186.701 36.3281 186.154 36.1068 185.711 35.6641C185.268 35.1953 185.047 34.6484 185.047 34.0234V25.2734C185.047 24.6224 185.268 24.0755 185.711 23.6328C186.154 23.1901 186.701 22.9688 187.352 22.9688H194.578C195.203 22.9688 195.737 23.1901 196.18 23.6328C196.648 24.0755 196.883 24.6224 196.883 25.2734V34.0234C196.883 34.6484 196.648 35.1953 196.18 35.6641C195.737 36.1068 195.203 36.3281 194.578 36.3281H193.758C193.576 36.3281 193.484 36.4193 193.484 36.6016V40.7031C193.484 40.9115 193.576 41.0156 193.758 41.0156H195.555C196.023 41.0156 196.427 41.1849 196.766 41.5234C197.104 41.862 197.273 42.2656 197.273 42.7344C197.273 42.7604 197.286 42.7865 197.312 42.8125C197.365 42.8125 197.404 42.8125 197.43 42.8125C199.174 40.8073 200.594 38.5026 201.688 35.8984C201.714 35.8464 201.701 35.7943 201.648 35.7422C201.622 35.6641 201.57 35.625 201.492 35.625H199.812C199.37 35.625 198.992 35.4688 198.68 35.1562C198.367 34.8438 198.211 34.4661 198.211 34.0234C198.211 33.5807 198.367 33.2031 198.68 32.8906C198.992 32.5521 199.37 32.3828 199.812 32.3828H203.914C204.096 32.3828 204.188 32.2917 204.188 32.1094V31.0547C204.188 30.8464 204.096 30.7422 203.914 30.7422H200.398C199.956 30.7422 199.578 30.5859 199.266 30.2734C198.953 29.9609 198.797 29.5964 198.797 29.1797C198.797 28.737 198.953 28.3594 199.266 28.0469C199.578 27.7344 199.956 27.5781 200.398 27.5781H203.914C204.096 27.5781 204.188 27.474 204.188 27.2656V26.25C204.188 26.0677 204.096 25.9766 203.914 25.9766H200.008C199.539 25.9766 199.148 25.8203 198.836 25.5078C198.523 25.1693 198.367 24.7786 198.367 24.3359C198.367 23.8672 198.523 23.4766 198.836 23.1641C199.148 22.8516 199.539 22.6953 200.008 22.6953H205.945C206.57 22.6953 207.104 22.9167 207.547 23.3594C208.016 23.8021 208.25 24.349 208.25 25V33.3203C208.25 33.9714 208.016 34.5182 207.547 34.9609C207.104 35.4036 206.57 35.625 205.945 35.625H205.047C205.021 35.625 205.008 35.638 205.008 35.6641C205.008 35.6901 205.021 35.7031 205.047 35.7031C205.438 35.8073 205.724 36.0547 205.906 36.4453C206.089 36.8099 206.089 37.1745 205.906 37.5391C205.802 37.7474 205.698 37.9427 205.594 38.125C205.568 38.1771 205.568 38.2292 205.594 38.2812C205.646 38.3333 205.698 38.3594 205.75 38.3594H209.227C209.435 38.3594 209.565 38.2682 209.617 38.0859C209.956 37.3307 210.255 36.5495 210.516 35.7422C210.542 35.6641 210.516 35.625 210.438 35.625C210.151 35.625 209.904 35.5339 209.695 35.3516C209.513 35.1432 209.422 34.9089 209.422 34.6484V34.0234C209.422 33.5807 209.578 33.2031 209.891 32.8906C210.229 32.5521 210.62 32.3828 211.062 32.3828H215.281C215.464 32.3828 215.555 32.2917 215.555 32.1094V31.0547C215.555 30.8464 215.464 30.7422 215.281 30.7422H211.531C211.089 30.7422 210.711 30.5859 210.398 30.2734C210.086 29.9609 209.93 29.5964 209.93 29.1797C209.93 28.737 210.086 28.3594 210.398 28.0469C210.711 27.7344 211.089 27.5781 211.531 27.5781H215.281C215.464 27.5781 215.555 27.474 215.555 27.2656V26.25C215.555 26.0677 215.464 25.9766 215.281 25.9766H211.062C210.62 25.9766 210.229 25.8203 209.891 25.5078C209.578 25.1693 209.422 24.7786 209.422 24.3359C209.422 23.8672 209.578 23.4766 209.891 23.1641C210.229 22.8516 210.62 22.6953 211.062 22.6953H217.352C217.977 22.6953 218.51 22.9167 218.953 23.3594C219.422 23.8021 219.656 24.349 219.656 25V33.3203C219.656 33.9714 219.422 34.5182 218.953 34.9609C218.51 35.4036 217.977 35.625 217.352 35.625H213.719C213.693 35.625 213.68 35.638 213.68 35.6641C213.68 35.6641 213.693 35.6771 213.719 35.7031C214.109 35.7812 214.37 36.0026 214.5 36.3672C214.656 36.7057 214.63 37.0443 214.422 37.3828C214.24 37.7214 214.109 37.9557 214.031 38.0859C214.005 38.1641 214.005 38.2292 214.031 38.2812C214.057 38.3333 214.109 38.3594 214.188 38.3594H218.172C218.667 38.3594 219.096 38.5417 219.461 38.9062C219.826 39.2708 220.008 39.7135 220.008 40.2344C220.008 40.7292 219.826 41.1589 219.461 41.5234C219.096 41.862 218.667 42.0312 218.172 42.0312H213.172C212.99 42.0312 212.898 42.1354 212.898 42.3438V43.5156C212.898 43.6979 212.99 43.7891 213.172 43.7891H217.078C217.521 43.7891 217.885 43.9453 218.172 44.2578C218.484 44.5703 218.641 44.9479 218.641 45.3906C218.641 45.8073 218.484 46.1719 218.172 46.4844C217.885 46.7708 217.521 46.9141 217.078 46.9141H213.172C212.99 46.9141 212.898 47.0182 212.898 47.2266V48.3984C212.898 48.5807 212.99 48.6719 213.172 48.6719H217.117C217.534 48.6719 217.885 48.8281 218.172 49.1406C218.484 49.4271 218.641 49.7917 218.641 50.2344C218.641 50.651 218.484 51.0156 218.172 51.3281C217.885 51.6146 217.534 51.7578 217.117 51.7578H213.172C212.99 51.7578 212.898 51.862 212.898 52.0703V53.3203C212.898 53.5026 212.99 53.5938 213.172 53.5938H218.602ZM244.812 41.0938C244.812 41.3021 244.917 41.4062 245.125 41.4062H252.938C253.146 41.4062 253.25 41.3021 253.25 41.0938V36.7969C253.25 36.5885 253.146 36.4844 252.938 36.4844H245.125C244.917 36.4844 244.812 36.5885 244.812 36.7969V41.0938ZM232.352 41.0938C232.352 41.3021 232.443 41.4062 232.625 41.4062H239.734C239.917 41.4062 240.008 41.3021 240.008 41.0938V36.7969C240.008 36.5885 239.917 36.4844 239.734 36.4844H232.781C232.573 36.4844 232.469 36.5885 232.469 36.7969V37.2266C232.469 38.4505 232.43 39.7396 232.352 41.0938ZM240.008 27.7344C240.008 27.526 239.917 27.4219 239.734 27.4219H232.781C232.573 27.4219 232.469 27.526 232.469 27.7344V31.7969C232.469 31.9792 232.573 32.0703 232.781 32.0703H239.734C239.917 32.0703 240.008 31.9792 240.008 31.7969V27.7344ZM252.938 32.0703C253.146 32.0703 253.25 31.9792 253.25 31.7969V27.7344C253.25 27.526 253.146 27.4219 252.938 27.4219H245.125C244.917 27.4219 244.812 27.526 244.812 27.7344V31.7969C244.812 31.9792 244.917 32.0703 245.125 32.0703H252.938ZM255.672 22.8906C256.297 22.8906 256.831 23.125 257.273 23.5938C257.742 24.0365 257.977 24.5703 257.977 25.1953V51.9531C257.977 53.2552 257.807 54.2578 257.469 54.9609C257.156 55.638 256.596 56.1458 255.789 56.4844C254.773 56.9792 252.99 57.2656 250.438 57.3438C250.411 57.3438 250.385 57.3438 250.359 57.3438C249.734 57.3438 249.174 57.1354 248.68 56.7188C248.159 56.3021 247.794 55.7682 247.586 55.1172C247.56 55.0391 247.534 54.974 247.508 54.9219C247.43 54.7135 247.391 54.5182 247.391 54.3359C247.391 54.0495 247.482 53.763 247.664 53.4766C247.951 53.0599 248.354 52.8516 248.875 52.8516C248.901 52.8516 248.914 52.8516 248.914 52.8516C249.826 52.8516 250.919 52.8516 252.195 52.8516C252.898 52.8516 253.25 52.5391 253.25 51.9141V46.1719C253.25 45.9896 253.146 45.8984 252.938 45.8984H245.125C244.917 45.8984 244.812 45.9896 244.812 46.1719V54.7656C244.812 55.3906 244.578 55.9245 244.109 56.3672C243.667 56.8359 243.133 57.0703 242.508 57.0703H242.312C241.688 57.0703 241.141 56.8359 240.672 56.3672C240.229 55.9245 240.008 55.3906 240.008 54.7656V46.1719C240.008 45.9896 239.917 45.8984 239.734 45.8984H232.156C231.948 45.8984 231.831 45.9896 231.805 46.1719C231.128 50.1823 229.943 53.4505 228.25 55.9766C227.911 56.4714 227.417 56.7318 226.766 56.7578C226.74 56.7578 226.714 56.7578 226.688 56.7578C226.089 56.7578 225.581 56.5625 225.164 56.1719C225.112 56.1458 225.073 56.1198 225.047 56.0938C225.021 56.0677 224.982 56.0417 224.93 56.0156C224.461 55.625 224.188 55.1302 224.109 54.5312C224.083 54.401 224.07 54.2708 224.07 54.1406C224.07 53.6979 224.201 53.2812 224.461 52.8906C224.904 52.2135 225.281 51.5104 225.594 50.7812C226.271 49.349 226.753 47.7995 227.039 46.1328C227.326 44.4661 227.508 42.9948 227.586 41.7188C227.69 40.4167 227.742 38.9062 227.742 37.1875V25.1953C227.742 24.5703 227.964 24.0365 228.406 23.5938C228.875 23.125 229.422 22.8906 230.047 22.8906H255.672ZM273.406 41.6406C273.38 41.8229 273.458 41.9141 273.641 41.9141H290.945C291.154 41.9141 291.258 41.8229 291.258 41.6406V36.3672C291.258 36.1849 291.154 36.0938 290.945 36.0938H273.914C273.732 36.0938 273.641 36.1849 273.641 36.3672C273.641 38.0859 273.562 39.8438 273.406 41.6406ZM273.641 31.4062C273.641 31.5885 273.732 31.6797 273.914 31.6797H293.758C294.409 31.6797 294.956 31.9141 295.398 32.3828C295.841 32.8255 296.062 33.3594 296.062 33.9844V46.0547C296.062 46.6797 295.841 47.2266 295.398 47.6953C294.956 48.138 294.409 48.3594 293.758 48.3594H293.055C292.56 48.3594 292.13 48.1901 291.766 47.8516C291.427 47.487 291.258 47.0573 291.258 46.5625C291.258 46.4062 291.18 46.3281 291.023 46.3281H273.016C272.807 46.3281 272.69 46.4193 272.664 46.6016C271.805 50.6641 270.464 54.0234 268.641 56.6797C268.302 57.1484 267.82 57.3958 267.195 57.4219C267.195 57.4219 267.182 57.4219 267.156 57.4219C266.557 57.4219 266.049 57.2135 265.633 56.7969C265.529 56.7188 265.411 56.6276 265.281 56.5234C264.812 56.1589 264.539 55.6771 264.461 55.0781C264.435 54.9219 264.422 54.7786 264.422 54.6484C264.422 54.2057 264.539 53.7891 264.773 53.3984C265.633 52.0964 266.349 50.6901 266.922 49.1797C267.495 47.6432 267.911 46.0677 268.172 44.4531C268.432 42.8385 268.602 41.3932 268.68 40.1172C268.758 38.8411 268.797 37.4349 268.797 35.8984V26.5625C268.797 25.9635 269.031 25.4948 269.5 25.1562C269.812 24.8958 270.151 24.7656 270.516 24.7656C270.672 24.7656 270.841 24.7917 271.023 24.8438L271.727 25.0391C271.909 25.0911 272.091 25.1042 272.273 25.0781C278.888 24.2448 284.539 23.1641 289.227 21.8359C289.617 21.7318 290.008 21.6797 290.398 21.6797C290.685 21.6797 290.984 21.7188 291.297 21.7969C292 21.9531 292.612 22.2656 293.133 22.7344L293.562 23.125C293.849 23.4115 293.992 23.724 293.992 24.0625C293.992 24.1667 293.979 24.2839 293.953 24.4141C293.823 24.9089 293.51 25.2214 293.016 25.3516C287.781 26.7839 281.414 27.9427 273.914 28.8281C273.732 28.8542 273.641 28.9714 273.641 29.1797V31.4062ZM324.852 47.8125C324.513 48.151 324.109 48.3203 323.641 48.3203L321.922 48.3594C321.74 48.3594 321.609 48.4505 321.531 48.6328C321.036 50.2214 320.346 51.5625 319.461 52.6562C319.331 52.8125 319.357 52.9297 319.539 53.0078C320.815 53.6849 321.766 54.1927 322.391 54.5312C322.547 54.6354 322.716 54.6354 322.898 54.5312C325.607 53.0208 327.82 50.9375 329.539 48.2812C329.643 48.125 329.656 47.9557 329.578 47.7734C328.719 45.6641 327.977 43.2552 327.352 40.5469C327.326 40.5208 327.286 40.5078 327.234 40.5078C327.208 40.4818 327.182 40.4948 327.156 40.5469C327.078 40.6771 327 40.8203 326.922 40.9766C326.661 41.4714 326.245 41.7318 325.672 41.7578C325.62 41.7578 325.568 41.7578 325.516 41.7578C324.995 41.7578 324.565 41.5625 324.227 41.1719C324.096 41.0417 323.953 40.9115 323.797 40.7812C323.771 40.7292 323.732 40.7161 323.68 40.7422C323.628 40.7682 323.602 40.8073 323.602 40.8594V41.2109C323.602 41.862 323.367 42.4089 322.898 42.8516C322.456 43.2943 321.922 43.5156 321.297 43.5156H314.773C314.982 43.5677 315.034 43.6979 314.93 43.9062L314.383 44.9219C314.305 45.026 314.331 45.0781 314.461 45.0781C315.581 45.0781 317.195 45.0651 319.305 45.0391C321.414 44.987 322.898 44.9479 323.758 44.9219C323.758 44.9219 323.771 44.9219 323.797 44.9219C324.24 44.9219 324.617 45.0911 324.93 45.4297C325.242 45.7422 325.398 46.1068 325.398 46.5234C325.398 47.0182 325.216 47.4479 324.852 47.8125ZM312.586 48.5547C312.378 48.5547 312.221 48.6458 312.117 48.8281L311.766 49.4141C311.661 49.5964 311.701 49.7135 311.883 49.7656C312.898 50.1302 314.031 50.5729 315.281 51.0938C315.464 51.1719 315.62 51.1328 315.75 50.9766C316.323 50.3516 316.818 49.6094 317.234 48.75C317.26 48.6719 317.247 48.6068 317.195 48.5547C317.169 48.5026 317.13 48.4766 317.078 48.4766L312.586 48.5547ZM309.266 38.9844C309.057 38.9844 308.953 39.0885 308.953 39.2969V40.3906C308.953 40.5729 309.057 40.6641 309.266 40.6641H311.844C312.026 40.6641 312.117 40.5729 312.117 40.3906V39.2969C312.117 39.0885 312.026 38.9844 311.844 38.9844H309.266ZM319.461 39.2969C319.461 39.0885 319.37 38.9844 319.188 38.9844H316.453C316.245 38.9844 316.141 39.0885 316.141 39.2969V40.3906C316.141 40.5729 316.245 40.6641 316.453 40.6641H319.188C319.37 40.6641 319.461 40.5729 319.461 40.3906V39.2969ZM334.07 33.0859C334.096 32.9036 334.018 32.8125 333.836 32.8125H330.281C330.203 32.8125 330.151 32.8516 330.125 32.9297C330.099 33.0078 330.086 33.0859 330.086 33.1641C330.659 36.6536 331.349 39.6484 332.156 42.1484C332.156 42.2005 332.182 42.2266 332.234 42.2266C332.286 42.2266 332.312 42.2005 332.312 42.1484C333.094 39.5703 333.68 36.5495 334.07 33.0859ZM309.773 31.6016C309.773 31.7839 309.865 31.875 310.047 31.875H311.844C312.026 31.875 312.117 31.7839 312.117 31.6016V30.7031C312.117 30.4948 312.026 30.3906 311.844 30.3906H310.047C309.865 30.3906 309.773 30.4948 309.773 30.7031V31.6016ZM312.117 26.3672C312.117 26.1849 312.026 26.0938 311.844 26.0938H310.047C309.865 26.0938 309.773 26.1849 309.773 26.3672V27.2266C309.773 27.4349 309.865 27.5391 310.047 27.5391H311.844C312.026 27.5391 312.117 27.4349 312.117 27.2266V26.3672ZM318.68 26.3672C318.68 26.1849 318.589 26.0938 318.406 26.0938H316.453C316.245 26.0938 316.141 26.1849 316.141 26.3672V27.2266C316.141 27.4349 316.245 27.5391 316.453 27.5391H318.406C318.589 27.5391 318.68 27.4349 318.68 27.2266V26.3672ZM316.141 31.6016C316.141 31.7839 316.245 31.875 316.453 31.875H318.406C318.589 31.875 318.68 31.7839 318.68 31.6016V30.7031C318.68 30.4948 318.589 30.3906 318.406 30.3906H316.453C316.245 30.3906 316.141 30.4948 316.141 30.7031V31.6016ZM340.672 30.9375C340.672 31.4323 340.49 31.875 340.125 32.2656C339.76 32.6302 339.318 32.8125 338.797 32.8125C338.641 32.8125 338.549 32.8906 338.523 33.0469C337.742 39.1927 336.492 44.1146 334.773 47.8125C334.695 47.9948 334.695 48.1641 334.773 48.3203C335.971 50.4036 337.378 52.1094 338.992 53.4375C339.461 53.8021 339.721 54.2839 339.773 54.8828C339.773 54.9609 339.773 55.0391 339.773 55.1172C339.773 55.5859 339.617 56.0286 339.305 56.4453C339.227 56.5234 339.161 56.6016 339.109 56.6797C338.693 57.1745 338.185 57.474 337.586 57.5781C337.456 57.6042 337.326 57.6172 337.195 57.6172C336.753 57.6172 336.336 57.474 335.945 57.1875C334.513 55.9375 333.237 54.4661 332.117 52.7734C332.013 52.6172 331.896 52.6042 331.766 52.7344C330.438 54.4792 328.875 56.0156 327.078 57.3438C326.714 57.6042 326.336 57.7344 325.945 57.7344C325.789 57.7344 325.62 57.7083 325.438 57.6562C324.839 57.5 324.37 57.1615 324.031 56.6406C323.797 56.276 323.549 55.9115 323.289 55.5469C323.185 55.3906 323.055 55.3776 322.898 55.5078L322 56.4062C321.531 56.875 320.958 57.1354 320.281 57.1875C320.177 57.2135 320.086 57.2266 320.008 57.2266C319.435 57.2266 318.914 57.0703 318.445 56.7578C317.846 56.3932 317.169 56.0156 316.414 55.625C316.258 55.5208 316.089 55.5208 315.906 55.625C313.953 56.7188 311.323 57.6042 308.016 58.2812C307.885 58.3073 307.742 58.3203 307.586 58.3203C307.195 58.3203 306.831 58.2161 306.492 58.0078C305.997 57.6953 305.62 57.2786 305.359 56.7578C305.281 56.5495 305.242 56.3411 305.242 56.1328C305.242 55.9245 305.294 55.7161 305.398 55.5078C305.581 55.0911 305.906 54.8438 306.375 54.7656C308.536 54.5052 310.294 54.1146 311.648 53.5938C311.701 53.5677 311.727 53.5286 311.727 53.4766C311.727 53.4245 311.701 53.3854 311.648 53.3594C311.466 53.3073 311.167 53.2031 310.75 53.0469C310.359 52.8646 310.047 52.7214 309.812 52.6172C309.786 52.6172 309.76 52.6302 309.734 52.6562C309.526 52.9688 309.253 53.0859 308.914 53.0078L307.547 52.6562C307.078 52.5521 306.753 52.2786 306.57 51.8359C306.518 51.6536 306.492 51.4714 306.492 51.2891C306.492 51.0547 306.557 50.8073 306.688 50.5469C306.974 50.1042 307.326 49.5573 307.742 48.9062C307.768 48.8281 307.755 48.763 307.703 48.7109C307.677 48.6589 307.638 48.6328 307.586 48.6328L305.359 48.6719C304.865 48.6719 304.435 48.5026 304.07 48.1641C303.706 47.7995 303.523 47.3568 303.523 46.8359C303.523 46.3932 303.68 46.0026 303.992 45.6641C304.331 45.3255 304.734 45.1562 305.203 45.1562C306.844 45.1562 308.289 45.1432 309.539 45.1172C309.747 45.1172 309.891 45.0391 309.969 44.8828C310.151 44.5703 310.359 44.2057 310.594 43.7891C310.62 43.7109 310.607 43.6458 310.555 43.5938C310.529 43.5417 310.49 43.5156 310.438 43.5156H307.352C306.701 43.5156 306.154 43.2943 305.711 42.8516C305.268 42.4089 305.047 41.862 305.047 41.2109V38.4375C305.047 37.7865 305.268 37.2396 305.711 36.7969C306.154 36.3542 306.701 36.1328 307.352 36.1328H311.844C312.026 36.1328 312.117 36.0286 312.117 35.8203V35.1562C312.117 34.974 312.026 34.8828 311.844 34.8828H308.133C307.508 34.8828 306.961 34.6615 306.492 34.2188C306.049 33.75 305.828 33.2031 305.828 32.5781V30.9375C305.828 30.7292 305.737 30.625 305.555 30.625H305.008C304.539 30.625 304.135 30.4688 303.797 30.1562C303.484 29.8177 303.328 29.4271 303.328 28.9844C303.328 28.5156 303.484 28.112 303.797 27.7734C304.135 27.4349 304.539 27.2656 305.008 27.2656H305.555C305.737 27.2656 305.828 27.1745 305.828 26.9922V25.3906C305.828 24.7396 306.049 24.1927 306.492 23.75C306.961 23.3073 307.508 23.0859 308.133 23.0859H311.883C312.039 23.0859 312.117 23.0078 312.117 22.8516C312.117 22.3828 312.286 21.9792 312.625 21.6406C312.964 21.3021 313.38 21.1328 313.875 21.1328H314.422C314.891 21.1328 315.294 21.3021 315.633 21.6406C315.971 21.9792 316.141 22.3828 316.141 22.8516C316.141 23.0078 316.219 23.0859 316.375 23.0859H320.477C321.128 23.0859 321.674 23.3073 322.117 23.75C322.56 24.1927 322.781 24.7396 322.781 25.3906V26.9922C322.781 27.1745 322.885 27.2656 323.094 27.2656H323.719C324.188 27.2656 324.578 27.4349 324.891 27.7734C325.229 28.112 325.398 28.5156 325.398 28.9844C325.398 29.4271 325.229 29.8177 324.891 30.1562C324.578 30.4688 324.188 30.625 323.719 30.625H323.094C322.885 30.625 322.781 30.7292 322.781 30.9375V32.5781C322.781 33.2031 322.56 33.75 322.117 34.2188C321.674 34.6615 321.128 34.8828 320.477 34.8828H316.453C316.245 34.8828 316.141 34.974 316.141 35.1562V35.8203C316.141 36.0286 316.245 36.1328 316.453 36.1328H322.469C322.781 36.1328 323.042 36.25 323.25 36.4844C323.484 36.6927 323.602 36.9531 323.602 37.2656C323.602 37.2656 323.602 37.2786 323.602 37.3047C323.628 37.3047 323.654 37.2917 323.68 37.2656C325.424 33.9323 326.727 29.3099 327.586 23.3984C327.664 22.7734 327.964 22.2656 328.484 21.875C328.875 21.5625 329.318 21.4062 329.812 21.4062C329.917 21.4062 330.021 21.4062 330.125 21.4062C330.75 21.5104 331.258 21.8099 331.648 22.3047C331.961 22.6953 332.117 23.125 332.117 23.5938C332.117 23.724 332.104 23.8542 332.078 23.9844C331.896 25.2604 331.648 26.6406 331.336 28.125C331.31 28.3073 331.388 28.3984 331.57 28.3984H338.484C339.083 28.3984 339.591 28.6198 340.008 29.0625C340.451 29.4792 340.672 29.987 340.672 30.5859V30.9375Z" fill="white"/>
</svg>
