<svg width="40" height="40" viewBox="0 0 40 40" fill="none" xmlns="http://www.w3.org/2000/svg">
<path fill-rule="evenodd" clip-rule="evenodd" d="M5 34H35.0916V7H5V34Z" fill="#FEFEFE"/>
<path fill-rule="evenodd" clip-rule="evenodd" d="M26.853 24.4019L26.8302 24.5694C27.6896 24.9045 29.0765 25.3359 30.9638 25.7191C31.4663 25.8155 32.59 25.9819 33.4983 26.1264V26.294C24.87 25.9589 20.1153 22.7967 17.869 20.5696V15.5405C16.6975 17.9111 13.0643 22.3664 5.8479 23.6584V33.0246H34.287V25.5987C33.1394 25.5275 31.9678 25.4311 31.1074 25.2877C29.6755 25.0652 28.2549 24.7703 26.853 24.4019Z" fill="#00A550"/>
<path fill-rule="evenodd" clip-rule="evenodd" d="M17.6286 11.2996H17.8679V15.4199C19.9956 19.0595 25.7305 21.9096 28.0017 22.6772C31.0595 23.6593 33.6408 23.9451 34.287 24.0174V7.87573H5.8479V21.5746C10.9387 20.2573 16.0764 14.7016 17.6286 11.2996" fill="#EC1D24"/>
<path fill-rule="evenodd" clip-rule="evenodd" d="M25.7964 23.2053V23.3969C27.1104 23.9477 29.571 24.7875 32.1295 25.1948C32.7985 25.3131 33.5392 25.4094 34.2811 25.4817V24.978C33.3239 24.8828 32.3449 24.7623 31.5562 24.6671C29.7875 24.4043 27.2051 23.6378 25.7964 23.2053Z" fill="#00A550"/>
<path fill-rule="evenodd" clip-rule="evenodd" d="M30.6809 23.8391V24.0066C31.5403 24.2935 32.9272 24.5333 34.2902 24.7249V24.3176C33.0816 24.2034 31.8777 24.0438 30.6809 23.8391" fill="#00A550"/>
</svg>
