<svg width="60" height="60" viewBox="0 0 60 60" fill="none" xmlns="http://www.w3.org/2000/svg">
<path d="M30.6 16.5C33.51 16.5 35.85 14.16 35.85 11.25C35.85 8.34 33.51 6 30.6 6C27.69 6 25.35 8.34 25.35 11.25C25.35 14.16 27.69 16.5 30.6 16.5ZM36.6 54V39H39.6V25.5C39.6 22.2 36.9 19.5 33.6 19.5H27.6C24.3 19.5 21.6 22.2 21.6 25.5V39H24.6V54H36.6Z" fill="#DBDBDB"/>
<mask id="mask0_847_21294" style="mask-type:alpha" maskUnits="userSpaceOnUse" x="15" y="6" width="31" height="48">
<rect x="15.6" y="6" width="30" height="48" fill="#D9D9D9"/>
</mask>
<g mask="url(#mask0_847_21294)">
<path d="M30.6 16.5C33.51 16.5 35.85 14.16 35.85 11.25C35.85 8.34 33.51 6 30.6 6C27.69 6 25.35 8.34 25.35 11.25C25.35 14.16 27.69 16.5 30.6 16.5ZM36.6 54V39H39.6V25.5C39.6 22.2 36.9 19.5 33.6 19.5H27.6C24.3 19.5 21.6 22.2 21.6 25.5V39H24.6V54H36.6Z" fill="url(#paint0_linear_847_21294)"/>
</g>
<defs>
<linearGradient id="paint0_linear_847_21294" x1="30.6" y1="6" x2="30.6" y2="54" gradientUnits="userSpaceOnUse">
<stop stop-color="#4FD598"/>
<stop offset="1" stop-color="#49BBCD"/>
</linearGradient>
</defs>
</svg>
