<svg width="201" height="129" viewBox="0 0 201 129" fill="none" xmlns="http://www.w3.org/2000/svg">
<path fill-rule="evenodd" clip-rule="evenodd" d="M81 35.5583H118.444V1.96094H81V35.5583Z" fill="#FEFEFE"/>
<path fill-rule="evenodd" clip-rule="evenodd" d="M108.193 23.615L108.164 23.8235C109.234 24.2404 110.96 24.7772 113.308 25.2541C113.933 25.374 115.332 25.5811 116.462 25.7609V25.9694C105.725 25.5525 99.8088 21.6176 97.0136 18.8463V12.5884C95.5558 15.5382 91.0349 21.0821 82.0552 22.6899V34.3446H117.443V25.1042C116.015 25.0156 114.557 24.8957 113.487 24.7173C111.705 24.4404 109.937 24.0734 108.193 23.615Z" fill="#00A550"/>
<path fill-rule="evenodd" clip-rule="evenodd" d="M96.7145 7.31129H97.0123V12.4383C99.6599 16.9672 106.796 20.5138 109.622 21.4689C113.427 22.6911 116.639 23.0467 117.443 23.1366V3.05078H82.0552V20.0969C88.3899 18.4578 94.7829 11.5445 96.7145 7.31129" fill="#EC1D24"/>
<path fill-rule="evenodd" clip-rule="evenodd" d="M106.878 22.1262V22.3647C108.513 23.05 111.575 24.095 114.758 24.6019C115.591 24.749 116.512 24.8689 117.436 24.9588V24.3321C116.244 24.2136 115.026 24.0637 114.045 23.9451C111.844 23.6181 108.631 22.6644 106.878 22.1262Z" fill="#00A550"/>
<path fill-rule="evenodd" clip-rule="evenodd" d="M112.956 22.9143V23.1228C114.026 23.4797 115.751 23.7781 117.447 24.0166V23.5097C115.944 23.3676 114.445 23.169 112.956 22.9143" fill="#00A550"/>
<path d="M16.7188 57.8477C16.9661 57.8477 17.181 57.9388 17.3633 58.1211C17.5456 58.2904 17.6367 58.5052 17.6367 58.7656C17.6367 59.026 17.5456 59.2474 17.3633 59.4297C17.181 59.612 16.9661 59.7031 16.7188 59.7031H9.41406C9.15365 59.7031 8.93229 59.612 8.75 59.4297C8.56771 59.2474 8.47656 59.0326 8.47656 58.7852C8.47656 58.5247 8.56771 58.3034 8.75 58.1211C8.93229 57.9388 9.15365 57.8477 9.41406 57.8477H16.7188ZM4.6875 58.1602C4.81771 57.8607 5.02604 57.6458 5.3125 57.5156C5.48177 57.4375 5.65755 57.3984 5.83984 57.3984C5.95703 57.3984 6.08073 57.418 6.21094 57.457H6.23047C6.52995 57.5612 6.73828 57.75 6.85547 58.0234C6.92057 58.1667 6.95312 58.3099 6.95312 58.4531C6.95312 58.5964 6.92708 58.7396 6.875 58.8828C6.44531 59.8333 5.99609 60.7253 5.52734 61.5586C5.48828 61.6367 5.46875 61.7279 5.46875 61.832V74.5469C5.46875 74.8594 5.35807 75.1263 5.13672 75.3477C4.91536 75.569 4.64844 75.6797 4.33594 75.6797C4.02344 75.6797 3.75651 75.569 3.53516 75.3477C3.3138 75.1263 3.20312 74.8594 3.20312 74.5469V65.2695C3.20312 65.2435 3.1901 65.2305 3.16406 65.2305C3.13802 65.2174 3.11849 65.2174 3.10547 65.2305C2.85807 65.543 2.59766 65.8555 2.32422 66.168C2.18099 66.3242 2.00521 66.4023 1.79688 66.4023C1.75781 66.4023 1.71224 66.4023 1.66016 66.4023C1.38672 66.3503 1.19141 66.2005 1.07422 65.9531C1.00911 65.8229 0.94401 65.6992 0.878906 65.582C0.761719 65.3477 0.703125 65.1003 0.703125 64.8398C0.703125 64.7617 0.703125 64.6901 0.703125 64.625C0.742188 64.2865 0.872396 63.9935 1.09375 63.7461C2.52604 62.1576 3.72396 60.2956 4.6875 58.1602ZM15.8789 71.2461C15.8789 71.1549 15.8333 71.1094 15.7422 71.1094H10.2734C10.1693 71.1094 10.1172 71.1549 10.1172 71.2461V72.9062C10.1172 73.0104 10.1693 73.0625 10.2734 73.0625H15.7422C15.8333 73.0625 15.8789 73.0104 15.8789 72.9062V71.2461ZM8.98438 75.7188C8.67188 75.7188 8.39844 75.6081 8.16406 75.3867C7.94271 75.1654 7.83203 74.8984 7.83203 74.5859V70.4062C7.83203 70.0938 7.94271 69.8268 8.16406 69.6055C8.39844 69.3711 8.67188 69.2539 8.98438 69.2539H17.1289C17.4414 69.2539 17.7083 69.3711 17.9297 69.6055C18.1641 69.8268 18.2812 70.0938 18.2812 70.4062V74.5078C18.2812 74.8203 18.1641 75.0872 17.9297 75.3086C17.7083 75.543 17.4414 75.6602 17.1289 75.6602H16.543C16.3607 75.6602 16.2044 75.5951 16.0742 75.4648C15.944 75.3346 15.8789 75.1784 15.8789 74.9961C15.8789 74.944 15.8529 74.918 15.8008 74.918H10.2148C10.1497 74.918 10.1172 74.9505 10.1172 75.0156C10.1172 75.2109 10.0456 75.3737 9.90234 75.5039C9.77214 75.6471 9.60938 75.7188 9.41406 75.7188H8.98438ZM9.08203 68.2773C8.83464 68.2773 8.61979 68.1862 8.4375 68.0039C8.25521 67.8216 8.16406 67.6068 8.16406 67.3594C8.16406 67.099 8.25521 66.8776 8.4375 66.6953C8.61979 66.513 8.83464 66.4219 9.08203 66.4219H16.9922C17.2526 66.4219 17.474 66.513 17.6562 66.6953C17.8385 66.8776 17.9297 67.099 17.9297 67.3594C17.9297 67.6068 17.8385 67.8216 17.6562 68.0039C17.474 68.1862 17.2526 68.2773 16.9922 68.2773H9.08203ZM17.0703 63.5703C17.3307 63.5703 17.5521 63.6615 17.7344 63.8438C17.9167 64.026 18.0078 64.2474 18.0078 64.5078C18.0078 64.7552 17.9167 64.9701 17.7344 65.1523C17.5521 65.3346 17.3307 65.4258 17.0703 65.4258H9.08203C8.82161 65.4258 8.60026 65.3346 8.41797 65.1523C8.2487 64.9701 8.16406 64.7552 8.16406 64.5078C8.16406 64.2474 8.2487 64.026 8.41797 63.8438C8.60026 63.6615 8.82161 63.5703 9.08203 63.5703H17.0703ZM6.85547 62.3203C6.67318 62.138 6.58203 61.9167 6.58203 61.6562C6.58203 61.3828 6.67318 61.1549 6.85547 60.9727C7.05078 60.7773 7.27865 60.6797 7.53906 60.6797H18.418C18.6784 60.6797 18.8997 60.7773 19.082 60.9727C19.2773 61.1549 19.375 61.3828 19.375 61.6562C19.375 61.9167 19.2773 62.138 19.082 62.3203C18.8997 62.5026 18.6784 62.5938 18.418 62.5938H7.53906C7.27865 62.5938 7.05078 62.5026 6.85547 62.3203ZM35.5664 70.3086C35.5794 70.2826 35.5794 70.2565 35.5664 70.2305C35.5534 70.2044 35.5339 70.1914 35.5078 70.1914H33.7305C33.6914 70.1914 33.6589 70.2109 33.6328 70.25C33.6198 70.276 33.6198 70.3021 33.6328 70.3281C33.7891 70.7318 33.9518 71.0768 34.1211 71.3633C34.1732 71.4414 34.2383 71.4544 34.3164 71.4023C34.7852 71.0638 35.2018 70.6992 35.5664 70.3086ZM27.2852 68.3164C27.2852 68.4076 27.3307 68.4531 27.4219 68.4531H30.5859C30.6901 68.4531 30.7292 68.4076 30.7031 68.3164C30.638 67.8997 30.5794 67.457 30.5273 66.9883C30.5143 66.9492 30.5078 66.9102 30.5078 66.8711C30.5078 66.6237 30.599 66.4023 30.7812 66.207C30.9896 65.9727 31.25 65.8555 31.5625 65.8555C31.875 65.8555 32.1484 65.9661 32.3828 66.1875C32.6172 66.4089 32.7539 66.6758 32.793 66.9883C32.8451 67.431 32.9167 67.8737 33.0078 68.3164C33.0339 68.4076 33.0924 68.4531 33.1836 68.4531H36.1914C36.2174 68.4531 36.2305 68.4466 36.2305 68.4336C36.2435 68.4076 36.2435 68.388 36.2305 68.375C35.6836 67.9974 35.0977 67.6589 34.4727 67.3594C34.2253 67.2292 34.0755 67.0339 34.0234 66.7734C34.0104 66.7083 34.0039 66.6432 34.0039 66.5781C34.0039 66.3958 34.0755 66.2266 34.2188 66.0703L34.5508 65.6992C34.5768 65.6862 34.5833 65.6667 34.5703 65.6406C34.5573 65.6146 34.5378 65.6016 34.5117 65.6016H28.8867C28.8607 65.6016 28.8411 65.6146 28.8281 65.6406C28.8151 65.6667 28.8216 65.6862 28.8477 65.6992L29.2383 66.1094C29.3555 66.2396 29.4141 66.3828 29.4141 66.5391C29.4141 66.6042 29.4076 66.6693 29.3945 66.7344C29.3164 66.9818 29.1536 67.125 28.9062 67.1641C28.4505 67.2422 27.9557 67.3203 27.4219 67.3984C27.3307 67.4115 27.2852 67.4701 27.2852 67.5742V68.3164ZM36.1719 70.1914C36.1589 70.1914 36.1458 70.2044 36.1328 70.2305C36.1328 70.2435 36.1393 70.25 36.1523 70.25L36.6797 70.4258C36.9401 70.5169 37.1094 70.6992 37.1875 70.9727C37.2005 71.0378 37.207 71.1094 37.207 71.1875C37.207 71.3568 37.1354 71.513 36.9922 71.6562C36.5885 72.0729 36.1068 72.4831 35.5469 72.8867C35.4557 72.9518 35.4492 73.0104 35.5273 73.0625C35.9831 73.388 36.4453 73.5508 36.9141 73.5508C37.2005 73.5508 37.3893 73.388 37.4805 73.0625C37.5326 72.8542 37.6562 72.7044 37.8516 72.6133C38.0469 72.5221 38.2422 72.5286 38.4375 72.6328C38.7109 72.763 38.9193 72.9518 39.0625 73.1992C39.1536 73.3685 39.1992 73.5378 39.1992 73.707C39.1992 73.7982 39.1927 73.8893 39.1797 73.9805C38.9974 74.6576 38.724 75.1133 38.3594 75.3477C38.0078 75.5951 37.487 75.7188 36.7969 75.7188C35.5729 75.7188 34.4661 75.2435 33.4766 74.293C33.4115 74.2148 33.3333 74.2018 33.2422 74.2539C32.3568 74.6836 31.3997 75.0677 30.3711 75.4062C30.2409 75.4453 30.1107 75.4648 29.9805 75.4648C29.8242 75.4648 29.6615 75.4323 29.4922 75.3672C29.1927 75.237 28.9583 75.0286 28.7891 74.7422C28.7109 74.612 28.6719 74.4753 28.6719 74.332C28.6719 74.2409 28.6849 74.1497 28.7109 74.0586C28.8151 73.8112 28.9909 73.6549 29.2383 73.5898C30.2669 73.3164 31.2044 72.9974 32.0508 72.6328C32.1419 72.5938 32.1615 72.5352 32.1094 72.457C31.7578 71.806 31.4648 71.1029 31.2305 70.3477C31.1914 70.2435 31.1263 70.1914 31.0352 70.1914H27.4219C27.3307 70.1914 27.2852 70.2435 27.2852 70.3477V70.8164C27.2852 70.9076 27.3307 70.9531 27.4219 70.9531L29.4727 70.8359C29.694 70.8229 29.8828 70.8945 30.0391 71.0508C30.1953 71.194 30.2734 71.3763 30.2734 71.5977C30.2734 71.832 30.1953 72.0339 30.0391 72.2031C29.8828 72.3594 29.6875 72.444 29.4531 72.457L27.4219 72.6328C27.3307 72.6328 27.2852 72.6849 27.2852 72.7891V73.668C27.2852 74.2018 27.2135 74.599 27.0703 74.8594C26.9401 75.1198 26.6927 75.3151 26.3281 75.4453C25.8333 75.6146 25.0651 75.7122 24.0234 75.7383C24.0104 75.7383 23.9974 75.7383 23.9844 75.7383C23.724 75.7383 23.4831 75.6536 23.2617 75.4844C23.0273 75.3021 22.8581 75.0742 22.7539 74.8008C22.6758 74.6055 22.6953 74.4167 22.8125 74.2344C22.9427 74.0521 23.1185 73.9609 23.3398 73.9609C23.4961 73.9609 23.6458 73.9609 23.7891 73.9609C24.1276 73.9609 24.4076 73.9544 24.6289 73.9414C24.7721 73.9414 24.8698 73.9154 24.9219 73.8633C24.987 73.8112 25.0195 73.7266 25.0195 73.6094V72.9453C25.0195 72.8542 24.9674 72.8086 24.8633 72.8086C24.2383 72.8607 23.3138 72.9323 22.0898 73.0234C22.0638 73.0234 22.0378 73.0234 22.0117 73.0234C21.7904 73.0234 21.5951 72.9453 21.4258 72.7891C21.2044 72.6068 21.0938 72.3659 21.0938 72.0664C21.0938 71.8581 21.1589 71.6758 21.2891 71.5195C21.4583 71.3372 21.6667 71.2396 21.9141 71.2266C22.8906 71.1875 23.8802 71.1419 24.8828 71.0898C24.974 71.0768 25.0195 71.0247 25.0195 70.9336V70.3477C25.0195 70.2435 24.974 70.1914 24.8828 70.1914H21.9336C21.6862 70.1914 21.4779 70.1068 21.3086 69.9375C21.1393 69.7682 21.0547 69.5664 21.0547 69.332C21.0547 69.0846 21.1393 68.8763 21.3086 68.707C21.4779 68.5378 21.6862 68.4531 21.9336 68.4531H24.8828C24.974 68.4531 25.0195 68.4076 25.0195 68.3164V67.8086C25.0195 67.7044 24.974 67.6589 24.8828 67.6719C24.1406 67.737 23.3984 67.7826 22.6562 67.8086C22.6432 67.8086 22.6302 67.8086 22.6172 67.8086C22.4219 67.8086 22.2396 67.75 22.0703 67.6328C21.888 67.5026 21.7643 67.3268 21.6992 67.1055C21.6341 66.9362 21.6471 66.7734 21.7383 66.6172C21.8294 66.4609 21.9661 66.3828 22.1484 66.3828C24.7786 66.2005 26.8294 65.9531 28.3008 65.6406C28.3138 65.6276 28.3138 65.6211 28.3008 65.6211C28.3008 65.6081 28.3008 65.6016 28.3008 65.6016H21.9922C21.7448 65.6016 21.5299 65.5169 21.3477 65.3477C21.1784 65.1654 21.0938 64.9505 21.0938 64.7031C21.0938 64.4557 21.1784 64.2474 21.3477 64.0781C21.5299 63.8958 21.7448 63.8047 21.9922 63.8047H28.5938C28.6849 63.8047 28.7305 63.7526 28.7305 63.6484V63.1992C28.7305 63.1081 28.6849 63.0625 28.5938 63.0625H23.8867C23.6523 63.0625 23.457 62.9844 23.3008 62.8281C23.1445 62.6589 23.0664 62.4635 23.0664 62.2422C23.0664 62.0078 23.1445 61.8125 23.3008 61.6562C23.457 61.5 23.6523 61.4219 23.8867 61.4219H28.5938C28.6849 61.4219 28.7305 61.3698 28.7305 61.2656V60.8555C28.7305 60.7513 28.6849 60.6992 28.5938 60.6992H22.8711C22.6367 60.6992 22.4284 60.6146 22.2461 60.4453C22.0768 60.276 21.9922 60.0677 21.9922 59.8203C21.9922 59.5729 22.0768 59.3646 22.2461 59.1953C22.4284 59.026 22.6367 58.9414 22.8711 58.9414H25.3906C25.4297 58.9414 25.4557 58.9284 25.4688 58.9023C25.4818 58.8763 25.4818 58.8438 25.4688 58.8047C25.4427 58.7526 25.4167 58.7005 25.3906 58.6484C25.2995 58.5052 25.2539 58.362 25.2539 58.2188C25.2539 58.1146 25.2734 58.0104 25.3125 57.9062C25.3906 57.6589 25.5599 57.4961 25.8203 57.418C25.9896 57.3529 26.1589 57.3203 26.3281 57.3203C26.4714 57.3203 26.6211 57.3464 26.7773 57.3984C27.1029 57.4896 27.3568 57.6654 27.5391 57.9258C27.7344 58.2383 27.8971 58.5312 28.0273 58.8047C28.0664 58.8958 28.1315 58.9414 28.2227 58.9414H31.9531C32.0573 58.9414 32.1289 58.8958 32.168 58.8047C32.2982 58.5703 32.4219 58.3294 32.5391 58.082C32.6823 57.7826 32.9036 57.5482 33.2031 57.3789C33.4115 57.2617 33.6263 57.2031 33.8477 57.2031C33.9388 57.2031 34.0299 57.2161 34.1211 57.2422L34.4922 57.3008C34.7526 57.3529 34.9349 57.5026 35.0391 57.75C35.0781 57.8542 35.0977 57.9518 35.0977 58.043C35.0977 58.1862 35.0456 58.3229 34.9414 58.4531C34.8503 58.5833 34.7591 58.707 34.668 58.8242C34.6549 58.8503 34.6549 58.8763 34.668 58.9023C34.681 58.9284 34.7005 58.9414 34.7266 58.9414H37.168C37.4023 58.9414 37.6042 59.026 37.7734 59.1953C37.9557 59.3646 38.0469 59.5729 38.0469 59.8203C38.0469 60.0677 37.9557 60.276 37.7734 60.4453C37.6042 60.6146 37.4023 60.6992 37.168 60.6992H31.3281C31.224 60.6992 31.1719 60.7513 31.1719 60.8555V61.2656C31.1719 61.3698 31.224 61.4219 31.3281 61.4219H36.1523C36.3867 61.4219 36.582 61.5 36.7383 61.6562C36.8945 61.8125 36.9727 62.0078 36.9727 62.2422C36.9727 62.4635 36.8945 62.6589 36.7383 62.8281C36.582 62.9844 36.3867 63.0625 36.1523 63.0625H31.3281C31.224 63.0625 31.1719 63.1081 31.1719 63.1992V63.6484C31.1719 63.7526 31.224 63.8047 31.3281 63.8047H38.0273C38.2747 63.8047 38.4831 63.8958 38.6523 64.0781C38.8346 64.2474 38.9258 64.4557 38.9258 64.7031C38.9258 64.9505 38.8346 65.1654 38.6523 65.3477C38.4831 65.5169 38.2747 65.6016 38.0273 65.6016H35.0977C35.0846 65.6016 35.0781 65.6081 35.0781 65.6211C35.0781 65.6341 35.0846 65.6471 35.0977 65.6602C35.8008 65.9336 36.4844 66.2656 37.1484 66.6562C37.4219 66.7995 37.5716 67.0273 37.5977 67.3398C37.6107 67.3789 37.6172 67.4245 37.6172 67.4766C37.6172 67.724 37.526 67.9453 37.3438 68.1406L37.1484 68.3555C37.1354 68.3685 37.1354 68.388 37.1484 68.4141C37.1615 68.4401 37.181 68.4531 37.207 68.4531H38.1445C38.3919 68.4531 38.6003 68.5378 38.7695 68.707C38.9388 68.8763 39.0234 69.0846 39.0234 69.332C39.0234 69.5664 38.9388 69.7682 38.7695 69.9375C38.6003 70.1068 38.3919 70.1914 38.1445 70.1914H36.1719ZM45.6836 65.8359C45.5924 65.8359 45.5469 65.888 45.5469 65.9922V66.5586C45.5469 66.6497 45.5924 66.6953 45.6836 66.6953H49.1797C49.2708 66.6953 49.3164 66.6497 49.3164 66.5586V65.9922C49.3164 65.888 49.2708 65.8359 49.1797 65.8359H45.6836ZM49.1797 61.8711C49.2708 61.8711 49.3164 61.8255 49.3164 61.7344V61.207C49.3164 61.1029 49.2708 61.0508 49.1797 61.0508H45.6836C45.5924 61.0508 45.5469 61.1029 45.5469 61.207V61.7344C45.5469 61.8255 45.5924 61.8711 45.6836 61.8711H49.1797ZM49.1797 64.2734C49.2708 64.2734 49.3164 64.2279 49.3164 64.1367V63.5898C49.3164 63.4857 49.2708 63.4336 49.1797 63.4336H45.6836C45.5924 63.4336 45.5469 63.4857 45.5469 63.5898V64.1367C45.5469 64.2279 45.5924 64.2734 45.6836 64.2734H49.1797ZM58.6914 69.5664C58.8867 69.7487 58.9844 69.9701 58.9844 70.2305C58.9844 70.4909 58.8867 70.7188 58.6914 70.9141C58.5091 71.0964 58.2878 71.1875 58.0273 71.1875H53.2031C53.1901 71.1875 53.1771 71.2005 53.1641 71.2266C53.1641 71.2396 53.1706 71.2461 53.1836 71.2461C54.707 72.1055 56.4258 72.7956 58.3398 73.3164C58.5872 73.3945 58.75 73.5508 58.8281 73.7852C58.8411 73.8633 58.8477 73.9414 58.8477 74.0195C58.8477 74.1758 58.7956 74.3255 58.6914 74.4688C58.6654 74.4948 58.6458 74.5208 58.6328 74.5469C58.4115 74.8203 58.1445 75.0221 57.832 75.1523C57.6628 75.2044 57.4935 75.2305 57.3242 75.2305C57.181 75.2305 57.0312 75.2109 56.875 75.1719C54.8047 74.4688 52.9232 73.5117 51.2305 72.3008C51.2044 72.2878 51.1784 72.2878 51.1523 72.3008C51.1263 72.3138 51.1133 72.3333 51.1133 72.3594V74.5664C51.1133 74.8919 51.0026 75.1654 50.7812 75.3867C50.5599 75.6081 50.2865 75.7188 49.9609 75.7188H49.9414C49.6159 75.7188 49.3424 75.6081 49.1211 75.3867C48.8997 75.1654 48.7891 74.8919 48.7891 74.5664V72.4375C48.7891 72.4115 48.7695 72.3919 48.7305 72.3789C48.7044 72.3659 48.6784 72.3659 48.6523 72.3789C46.9727 73.5898 45.0846 74.5534 42.9883 75.2695C42.832 75.3216 42.6758 75.3477 42.5195 75.3477C42.3503 75.3477 42.1875 75.3151 42.0312 75.25C41.7057 75.1328 41.4388 74.9375 41.2305 74.6641C41.1914 74.612 41.1523 74.5599 41.1133 74.5078C41.0091 74.3776 40.957 74.2344 40.957 74.0781C40.957 74 40.9701 73.9219 40.9961 73.8438C41.0742 73.5964 41.237 73.4401 41.4844 73.375C43.4766 72.8411 45.2669 72.1315 46.8555 71.2461C46.8685 71.2461 46.8685 71.2396 46.8555 71.2266C46.8555 71.2005 46.849 71.1875 46.8359 71.1875H41.9727C41.7122 71.1875 41.4844 71.0964 41.2891 70.9141C41.1068 70.7188 41.0156 70.4909 41.0156 70.2305C41.0156 69.9701 41.1068 69.7487 41.2891 69.5664C41.4844 69.3711 41.7122 69.2734 41.9727 69.2734H48.6328C48.737 69.2734 48.7891 69.2279 48.7891 69.1367V68.6484C48.7891 68.5443 48.737 68.4922 48.6328 68.4922H44.4336C44.1081 68.4922 43.8346 68.3815 43.6133 68.1602C43.3919 67.9388 43.2812 67.6654 43.2812 67.3398V63.2383C43.2812 63.2122 43.2682 63.1992 43.2422 63.1992C43.2161 63.1862 43.1966 63.1862 43.1836 63.1992C43.1315 63.2383 43.0794 63.2839 43.0273 63.3359C42.806 63.5182 42.5651 63.6094 42.3047 63.6094C42.2656 63.6094 42.2266 63.6094 42.1875 63.6094C41.875 63.5703 41.6016 63.4401 41.3672 63.2188C41.3542 63.2057 41.3477 63.1992 41.3477 63.1992C41.1393 63.0039 41.0352 62.763 41.0352 62.4766C41.0352 62.1901 41.1458 61.9557 41.3672 61.7734C42.6562 60.6927 43.7435 59.4492 44.6289 58.043C44.8112 57.7435 45.0586 57.5221 45.3711 57.3789C45.5924 57.2747 45.8138 57.2227 46.0352 57.2227C46.1393 57.2227 46.237 57.2292 46.3281 57.2422L46.5234 57.2812C46.8099 57.3333 47.0117 57.4896 47.1289 57.75C47.168 57.8542 47.1875 57.9648 47.1875 58.082C47.1875 58.2122 47.1484 58.349 47.0703 58.4922C46.9401 58.6875 46.8034 58.8893 46.6602 59.0977C46.6471 59.1237 46.6471 59.1497 46.6602 59.1758C46.6732 59.2018 46.6927 59.2148 46.7188 59.2148H49.2773C49.3685 59.2148 49.4401 59.1758 49.4922 59.0977C49.6354 58.7852 49.7721 58.4661 49.9023 58.1406C50.0326 57.8281 50.2409 57.5807 50.5273 57.3984C50.7617 57.2552 51.0091 57.1836 51.2695 57.1836C51.3216 57.1836 51.3802 57.1901 51.4453 57.2031L51.8359 57.2422C52.1094 57.2812 52.3112 57.418 52.4414 57.6523C52.4935 57.7695 52.5195 57.8867 52.5195 58.0039C52.5195 58.1341 52.487 58.2578 52.4219 58.375C52.2786 58.6224 52.1289 58.8633 51.9727 59.0977C51.9596 59.1237 51.9596 59.1497 51.9727 59.1758C51.9857 59.2018 52.0117 59.2148 52.0508 59.2148H56.9531C57.2135 59.2148 57.4284 59.306 57.5977 59.4883C57.7799 59.6706 57.8711 59.8919 57.8711 60.1523C57.8711 60.3997 57.7799 60.6146 57.5977 60.7969C57.4284 60.9661 57.2135 61.0508 56.9531 61.0508H51.7383C51.6471 61.0508 51.6016 61.1029 51.6016 61.207V61.7344C51.6016 61.8255 51.6471 61.8711 51.7383 61.8711H56.1133C56.3346 61.8711 56.5169 61.9492 56.6602 62.1055C56.8164 62.2617 56.8945 62.4505 56.8945 62.6719C56.8945 62.8802 56.8164 63.0625 56.6602 63.2188C56.5169 63.362 56.3346 63.4336 56.1133 63.4336H51.7383C51.6471 63.4336 51.6016 63.4857 51.6016 63.5898V64.1367C51.6016 64.2279 51.6471 64.2734 51.7383 64.2734H56.1328C56.3542 64.2734 56.5365 64.3516 56.6797 64.5078C56.8359 64.6641 56.9141 64.8529 56.9141 65.0742C56.9141 65.2826 56.8359 65.4648 56.6797 65.6211C56.5365 65.7643 56.3542 65.8359 56.1328 65.8359H51.7383C51.6471 65.8359 51.6016 65.888 51.6016 65.9922V66.5586C51.6016 66.6497 51.6471 66.6953 51.7383 66.6953H57.5586C57.806 66.6953 58.0143 66.7865 58.1836 66.9688C58.3659 67.138 58.457 67.3464 58.457 67.5938C58.457 67.8411 58.3659 68.056 58.1836 68.2383C58.0143 68.4076 57.806 68.4922 57.5586 68.4922H51.2695C51.1654 68.4922 51.1133 68.5443 51.1133 68.6484V69.1367C51.1133 69.2279 51.1654 69.2734 51.2695 69.2734H58.0273C58.2878 69.2734 58.5091 69.3711 58.6914 69.5664ZM71.0547 66.5C70.9505 66.5 70.8984 66.5521 70.8984 66.6562V66.9883C70.8984 67.0924 70.9505 67.1445 71.0547 67.1445H72.4609C72.474 67.1445 72.4805 67.138 72.4805 67.125C72.4284 67.0859 72.4023 67.0339 72.4023 66.9688C72.4023 66.9036 72.4284 66.8516 72.4805 66.8125L72.8906 66.5586C72.9036 66.5456 72.9036 66.5326 72.8906 66.5195C72.8906 66.5065 72.8841 66.5 72.8711 66.5H71.0547ZM66.7969 65.3477C66.7969 65.4518 66.849 65.5039 66.9531 65.5039H68.8086C68.9128 65.5039 68.9648 65.4518 68.9648 65.3477V65.0742C68.9648 64.9701 68.9128 64.918 68.8086 64.918H66.9531C66.849 64.918 66.7969 64.9701 66.7969 65.0742V65.3477ZM66.9531 63.3945C66.849 63.3945 66.7969 63.4466 66.7969 63.5508V63.8242C66.7969 63.9284 66.849 63.9805 66.9531 63.9805H68.8086C68.9128 63.9805 68.9648 63.9284 68.9648 63.8242V63.5508C68.9648 63.4466 68.9128 63.3945 68.8086 63.3945H66.9531ZM73.0273 63.5508C73.0273 63.4466 72.9753 63.3945 72.8711 63.3945H71.0547C70.9505 63.3945 70.8984 63.4466 70.8984 63.5508V63.8242C70.8984 63.9284 70.9505 63.9805 71.0547 63.9805H72.8711C72.9753 63.9805 73.0273 63.9284 73.0273 63.8242V63.5508ZM72.8711 65.5039C72.9753 65.5039 73.0273 65.4518 73.0273 65.3477V65.0742C73.0273 64.9701 72.9753 64.918 72.8711 64.918H71.0547C70.9505 64.918 70.8984 64.9701 70.8984 65.0742V65.3477C70.8984 65.4518 70.9505 65.5039 71.0547 65.5039H72.8711ZM75.0781 68.8438C75.2604 68.8438 75.4102 68.9089 75.5273 69.0391C75.6576 69.1562 75.7227 69.306 75.7227 69.4883C75.7227 69.6576 75.6576 69.8073 75.5273 69.9375C75.4102 70.0547 75.2604 70.1133 75.0781 70.1133H73.2812C73.1901 70.1133 73.1445 70.1654 73.1445 70.2695V71.4023C73.1445 71.7799 73.0924 72.0534 72.9883 72.2227C72.8841 72.3789 72.6953 72.4961 72.4219 72.5742C72.0573 72.6784 71.4518 72.7305 70.6055 72.7305C70.2279 72.7305 69.9544 72.5286 69.7852 72.125C69.7201 71.9948 69.7266 71.8711 69.8047 71.7539C69.8828 71.6367 69.9935 71.5781 70.1367 71.5781C70.2279 71.5781 70.306 71.5781 70.3711 71.5781C70.6315 71.5781 70.8073 71.5716 70.8984 71.5586C71.0807 71.5586 71.1719 71.4805 71.1719 71.3242V70.2695C71.1719 70.1654 71.1263 70.1133 71.0352 70.1133H67.793C67.7669 70.1133 67.7474 70.1263 67.7344 70.1523C67.7214 70.1784 67.7214 70.2044 67.7344 70.2305C67.9948 70.4779 68.2422 70.7448 68.4766 71.0312C68.5807 71.1615 68.6328 71.2982 68.6328 71.4414C68.6328 71.5065 68.6198 71.5716 68.5938 71.6367C68.5417 71.8581 68.4049 72.0208 68.1836 72.125C68.0534 72.1901 67.9167 72.2227 67.7734 72.2227C67.6823 72.2227 67.5911 72.2096 67.5 72.1836C67.2656 72.1185 67.0703 71.9818 66.9141 71.7734C66.862 71.7083 66.8099 71.6432 66.7578 71.5781C66.6276 71.4089 66.5625 71.2266 66.5625 71.0312C66.5625 70.9661 66.569 70.901 66.582 70.8359C66.6341 70.5495 66.7904 70.3477 67.0508 70.2305L67.1484 70.1914C67.1615 70.1784 67.168 70.1654 67.168 70.1523C67.168 70.1263 67.1549 70.1133 67.1289 70.1133H64.8242C64.6419 70.1133 64.4857 70.0547 64.3555 69.9375C64.2383 69.8073 64.1797 69.6576 64.1797 69.4883C64.1797 69.306 64.2383 69.1562 64.3555 69.0391C64.4857 68.9089 64.6419 68.8438 64.8242 68.8438H71.1133C71.1523 68.8438 71.1719 68.8177 71.1719 68.7656C71.1719 68.6354 71.224 68.5182 71.3281 68.4141C71.4323 68.3099 71.556 68.2578 71.6992 68.2578H72.6172C72.7604 68.2578 72.8841 68.3099 72.9883 68.4141C73.0924 68.5182 73.1445 68.6354 73.1445 68.7656C73.1445 68.8177 73.1641 68.8438 73.2031 68.8438H74.0625C74.0885 68.8438 74.1081 68.8307 74.1211 68.8047C74.1341 68.7786 74.1341 68.7526 74.1211 68.7266C74.0299 68.6094 73.8932 68.4531 73.7109 68.2578C73.6458 68.1927 73.5677 68.1602 73.4766 68.1602C70.1562 68.2773 67.4023 68.362 65.2148 68.4141C65.0326 68.4141 64.8763 68.3555 64.7461 68.2383C64.6159 68.1211 64.5443 67.9714 64.5312 67.7891C64.5312 67.6198 64.5898 67.4766 64.707 67.3594C64.8242 67.2292 64.9674 67.1641 65.1367 67.1641H68.8086C68.9128 67.1641 68.9648 67.112 68.9648 67.0078V66.6562C68.9648 66.5521 68.9128 66.5 68.8086 66.5H66.1523C65.8398 66.5 65.5664 66.3893 65.332 66.168C65.1107 65.9336 65 65.6602 65 65.3477V63.5703C65 63.2578 65.1107 62.9909 65.332 62.7695C65.5664 62.5352 65.8398 62.418 66.1523 62.418H68.8086C68.9128 62.418 68.9648 62.3724 68.9648 62.2812V61.9688C68.9648 61.8646 68.9128 61.8125 68.8086 61.8125H65.0781C64.9089 61.8125 64.7591 61.7539 64.6289 61.6367C64.4987 61.5065 64.4336 61.3568 64.4336 61.1875C64.4336 61.0052 64.4987 60.8555 64.6289 60.7383C64.7591 60.6081 64.9089 60.543 65.0781 60.543H68.8672C68.9323 60.543 68.9648 60.5169 68.9648 60.4648C68.9648 60.2826 69.0234 60.1263 69.1406 59.9961C69.2708 59.8659 69.4271 59.8008 69.6094 59.8008H70.2344C70.4167 59.8008 70.5729 59.8659 70.7031 59.9961C70.8333 60.1263 70.8984 60.2826 70.8984 60.4648C70.8984 60.5169 70.9245 60.543 70.9766 60.543H74.8242C74.9935 60.543 75.1432 60.6081 75.2734 60.7383C75.4036 60.8555 75.4688 61.0052 75.4688 61.1875C75.4688 61.3568 75.4036 61.5065 75.2734 61.6367C75.1432 61.7539 74.9935 61.8125 74.8242 61.8125H71.0547C70.9505 61.8125 70.8984 61.8646 70.8984 61.9688V62.2812C70.8984 62.3724 70.9505 62.418 71.0547 62.418H73.7695C74.082 62.418 74.349 62.5352 74.5703 62.7695C74.8047 62.9909 74.9219 63.2578 74.9219 63.5703V65.6211C74.9219 65.8555 74.8307 66.0638 74.6484 66.2461C74.4792 66.4154 74.2708 66.5 74.0234 66.5C74.0104 66.5 74.0039 66.513 74.0039 66.5391C74.0039 66.5521 74.0039 66.5651 74.0039 66.5781C74.2773 66.7865 74.5378 67.0013 74.7852 67.2227C74.9805 67.418 75.0781 67.6458 75.0781 67.9062C75.0781 67.9453 75.0781 67.9779 75.0781 68.0039C75.0521 68.3164 74.9089 68.5638 74.6484 68.7461L74.6289 68.7656C74.6159 68.7786 74.6094 68.7982 74.6094 68.8242C74.6224 68.8372 74.6354 68.8438 74.6484 68.8438H75.0781ZM63.7891 72.8281C63.7891 72.9323 63.8346 72.9844 63.9258 72.9844H76.0156C76.1068 72.9844 76.1523 72.9323 76.1523 72.8281V59.6641C76.1523 59.5729 76.1068 59.5273 76.0156 59.5273H63.9258C63.8346 59.5273 63.7891 59.5729 63.7891 59.6641V72.8281ZM61.6406 58.8633C61.6406 58.5508 61.7513 58.2839 61.9727 58.0625C62.207 57.8281 62.4805 57.7109 62.793 57.7109H77.2656C77.5911 57.7109 77.8646 57.8281 78.0859 58.0625C78.3073 58.2839 78.418 58.5508 78.418 58.8633V74.5859C78.418 74.8984 78.3073 75.1654 78.0859 75.3867C77.8646 75.6081 77.5977 75.7188 77.2852 75.7188H76.9922C76.7578 75.7188 76.556 75.6341 76.3867 75.4648C76.2305 75.3086 76.1523 75.1133 76.1523 74.8789C76.1523 74.8138 76.1198 74.7812 76.0547 74.7812H63.8867C63.8216 74.7812 63.7891 74.8203 63.7891 74.8984C63.7891 75.1328 63.6979 75.3346 63.5156 75.5039C63.3464 75.6732 63.1445 75.7578 62.9102 75.7578H62.7148C62.4154 75.7578 62.1615 75.6536 61.9531 75.4453C61.7448 75.237 61.6406 74.9831 61.6406 74.6836V58.8633ZM94.3359 67.4766C94.4271 67.4766 94.4727 67.431 94.4727 67.3398V65.0156C94.4727 64.9115 94.4271 64.8594 94.3359 64.8594H85.7812C85.6901 64.8594 85.6445 64.9115 85.6445 65.0156V67.3398C85.6445 67.431 85.6901 67.4766 85.7812 67.4766H94.3359ZM85.6445 72.2031C85.6445 72.2943 85.6901 72.3398 85.7812 72.3398H94.3359C94.4271 72.3398 94.4727 72.2943 94.4727 72.2031V69.7812C94.4727 69.6901 94.4271 69.6445 94.3359 69.6445H85.7812C85.6901 69.6445 85.6445 69.6901 85.6445 69.7812V72.2031ZM98.8086 59.2344C98.8086 59.5469 98.6914 59.8203 98.457 60.0547C98.2357 60.276 97.9688 60.3867 97.6562 60.3867H91.4062C91.3151 60.3867 91.2565 60.4323 91.2305 60.5234C91.0742 61.1224 90.8854 61.7865 90.6641 62.5156C90.651 62.5547 90.651 62.5872 90.6641 62.6133C90.6901 62.6393 90.7227 62.6523 90.7617 62.6523H95.8594C96.1849 62.6523 96.4583 62.7695 96.6797 63.0039C96.901 63.2253 97.0117 63.4922 97.0117 63.8047V74.5859C97.0117 74.9115 96.901 75.1849 96.6797 75.4062C96.4583 75.6276 96.1849 75.7383 95.8594 75.7383H95.5469C95.2474 75.7383 94.9935 75.6341 94.7852 75.4258C94.5768 75.2174 94.4727 74.9701 94.4727 74.6836C94.4727 74.5924 94.4271 74.5469 94.3359 74.5469H85.7812C85.6901 74.5469 85.6445 74.5924 85.6445 74.6836C85.6445 74.9701 85.5404 75.2174 85.332 75.4258C85.1237 75.6341 84.8698 75.7383 84.5703 75.7383H84.375C84.0495 75.7383 83.776 75.6276 83.5547 75.4062C83.3333 75.1849 83.2227 74.9115 83.2227 74.5859V63.8047C83.2227 63.4922 83.3333 63.2253 83.5547 63.0039C83.776 62.7695 84.0495 62.6523 84.375 62.6523H87.9492C88.0534 62.6523 88.112 62.6068 88.125 62.5156C88.2422 61.9167 88.3464 61.2526 88.4375 60.5234C88.4505 60.4323 88.4115 60.3867 88.3203 60.3867H82.3633C82.0508 60.3867 81.7773 60.276 81.543 60.0547C81.3216 59.8203 81.2109 59.5469 81.2109 59.2344V59.2148C81.2109 58.8893 81.3216 58.6159 81.543 58.3945C81.7773 58.1732 82.0508 58.0625 82.3633 58.0625H97.6562C97.9688 58.0625 98.2357 58.1732 98.457 58.3945C98.6914 58.6159 98.8086 58.8893 98.8086 59.2148V59.2344ZM115.234 73.668C115.247 73.7721 115.306 73.8242 115.41 73.8242H115.605C115.71 73.8112 115.781 73.7852 115.82 73.7461C115.859 73.707 115.879 73.6419 115.879 73.5508V70.4453C115.879 70.3542 115.833 70.3086 115.742 70.3086H114.004C113.978 70.3086 113.952 70.3216 113.926 70.3477C113.913 70.3737 113.913 70.3997 113.926 70.4258C114.564 71.5456 115 72.6263 115.234 73.668ZM111.074 71.5586C111.074 71.6497 111.126 71.6953 111.23 71.6953L112.422 71.6172C112.5 71.6172 112.526 71.5846 112.5 71.5195C112.448 71.4154 112.422 71.3047 112.422 71.1875C112.422 71.0833 112.441 70.9792 112.48 70.875C112.585 70.6667 112.747 70.5365 112.969 70.4844L113.535 70.3281C113.548 70.3281 113.555 70.3281 113.555 70.3281C113.555 70.3151 113.548 70.3086 113.535 70.3086H111.23C111.126 70.3086 111.074 70.3542 111.074 70.4453V71.5586ZM105.586 65.8555C105.586 65.9466 105.632 65.9922 105.723 65.9922H108.672C108.776 65.9922 108.828 65.9466 108.828 65.8555V65.2305C108.828 65.1263 108.776 65.0742 108.672 65.0742H105.723C105.632 65.0742 105.586 65.1263 105.586 65.2305V65.8555ZM105.723 62.7109C105.632 62.7109 105.586 62.763 105.586 62.8672V63.4727C105.586 63.5768 105.632 63.6289 105.723 63.6289H108.672C108.776 63.6289 108.828 63.5768 108.828 63.4727V62.8672C108.828 62.763 108.776 62.7109 108.672 62.7109H105.723ZM114.238 63.6289C114.329 63.6289 114.375 63.5768 114.375 63.4727V62.8672C114.375 62.763 114.329 62.7109 114.238 62.7109H111.23C111.126 62.7109 111.074 62.763 111.074 62.8672V63.4727C111.074 63.5768 111.126 63.6289 111.23 63.6289H114.238ZM114.238 65.9922C114.329 65.9922 114.375 65.9466 114.375 65.8555V65.2305C114.375 65.1263 114.329 65.0742 114.238 65.0742H111.23C111.126 65.0742 111.074 65.1263 111.074 65.2305V65.8555C111.074 65.9466 111.126 65.9922 111.23 65.9922H114.238ZM117.031 68.3359C117.344 68.3359 117.611 68.4531 117.832 68.6875C118.066 68.9089 118.184 69.1758 118.184 69.4883V73.5703C118.184 74.0781 118.132 74.4622 118.027 74.7227C117.923 74.9961 117.721 75.2174 117.422 75.3867C117.122 75.543 116.68 75.6406 116.094 75.6797C116.068 75.6797 116.042 75.6797 116.016 75.6797C115.716 75.6797 115.449 75.582 115.215 75.3867C114.941 75.1914 114.746 74.9245 114.629 74.5859C114.603 74.4948 114.57 74.4036 114.531 74.3125C114.492 74.2344 114.434 74.2083 114.355 74.2344H114.336C114.258 74.2604 114.186 74.2734 114.121 74.2734C113.965 74.2734 113.809 74.2279 113.652 74.1367C113.444 73.9935 113.307 73.8047 113.242 73.5703C113.216 73.4922 113.164 73.4596 113.086 73.4727C112.5 73.5117 110.247 73.6549 106.328 73.9023C106.302 73.9023 106.276 73.9023 106.25 73.9023C106.003 73.9023 105.781 73.8177 105.586 73.6484C105.352 73.4401 105.234 73.1797 105.234 72.8672C105.234 72.6328 105.312 72.4245 105.469 72.2422C105.651 72.0339 105.879 71.9232 106.152 71.9102C106.413 71.9102 106.823 71.8971 107.383 71.8711C107.956 71.8451 108.385 71.8255 108.672 71.8125C108.776 71.7995 108.828 71.7474 108.828 71.6562V70.4453C108.828 70.3542 108.776 70.3086 108.672 70.3086H104.473C104.368 70.3086 104.316 70.3542 104.316 70.4453V74.6055C104.316 74.918 104.206 75.1849 103.984 75.4062C103.763 75.6276 103.496 75.7383 103.184 75.7383C102.871 75.7383 102.604 75.6276 102.383 75.4062C102.161 75.1849 102.051 74.918 102.051 74.6055V69.4883C102.051 69.1758 102.161 68.9089 102.383 68.6875C102.617 68.4531 102.891 68.3359 103.203 68.3359H108.672C108.776 68.3359 108.828 68.2904 108.828 68.1992V67.6914C108.828 67.5872 108.776 67.5352 108.672 67.5352H104.453C104.141 67.5352 103.867 67.4245 103.633 67.2031C103.411 66.9818 103.301 66.7083 103.301 66.3828V62.3203C103.301 61.9948 103.411 61.7214 103.633 61.5C103.867 61.2786 104.141 61.168 104.453 61.168H115.625C115.951 61.168 116.224 61.2786 116.445 61.5C116.667 61.7214 116.777 61.9948 116.777 62.3203V66.3828C116.777 66.7083 116.667 66.9818 116.445 67.2031C116.224 67.4245 115.951 67.5352 115.625 67.5352H111.23C111.126 67.5352 111.074 67.5872 111.074 67.6914V68.1992C111.074 68.2904 111.126 68.3359 111.23 68.3359H117.031ZM114.648 57.9453C114.648 58.0234 114.681 58.0625 114.746 58.0625H117.676C117.949 58.0625 118.177 58.1602 118.359 58.3555C118.555 58.5508 118.652 58.7852 118.652 59.0586C118.652 59.332 118.555 59.5664 118.359 59.7617C118.177 59.944 117.949 60.0352 117.676 60.0352H114.727C114.674 60.0352 114.648 60.0677 114.648 60.1328C114.648 60.3411 114.57 60.5169 114.414 60.6602C114.271 60.8034 114.095 60.875 113.887 60.875H113.047C112.839 60.875 112.663 60.8034 112.52 60.6602C112.376 60.5169 112.305 60.3411 112.305 60.1328C112.305 60.0677 112.272 60.0352 112.207 60.0352H107.676C107.611 60.0352 107.578 60.0677 107.578 60.1328C107.578 60.3411 107.507 60.5169 107.363 60.6602C107.22 60.8034 107.044 60.875 106.836 60.875H105.977C105.781 60.875 105.605 60.8034 105.449 60.6602C105.306 60.5169 105.234 60.3411 105.234 60.1328C105.234 60.0677 105.202 60.0352 105.137 60.0352H102.266C101.992 60.0352 101.758 59.944 101.562 59.7617C101.38 59.5664 101.289 59.332 101.289 59.0586C101.289 58.7852 101.38 58.5508 101.562 58.3555C101.758 58.1602 101.992 58.0625 102.266 58.0625H105.137C105.202 58.0625 105.234 58.0234 105.234 57.9453C105.234 57.6979 105.319 57.4896 105.488 57.3203C105.671 57.151 105.885 57.0664 106.133 57.0664H106.699C106.934 57.0664 107.135 57.151 107.305 57.3203C107.487 57.4896 107.578 57.6979 107.578 57.9453C107.578 58.0234 107.617 58.0625 107.695 58.0625H112.188C112.266 58.0625 112.305 58.0234 112.305 57.9453C112.305 57.6979 112.389 57.4896 112.559 57.3203C112.728 57.151 112.936 57.0664 113.184 57.0664H113.75C113.997 57.0664 114.206 57.151 114.375 57.3203C114.557 57.4896 114.648 57.6979 114.648 57.9453ZM125.762 58.7266C126.035 58.8828 126.204 59.1107 126.27 59.4102C126.283 59.4883 126.289 59.5664 126.289 59.6445C126.289 59.8529 126.217 60.0547 126.074 60.25L126.016 60.3086C125.833 60.569 125.586 60.7253 125.273 60.7773C125.195 60.7904 125.117 60.7969 125.039 60.7969C124.805 60.7969 124.583 60.7318 124.375 60.6016C123.958 60.3411 123.385 60.0026 122.656 59.5859C122.396 59.4427 122.24 59.2279 122.188 58.9414C122.174 58.8763 122.168 58.8112 122.168 58.7461C122.168 58.5378 122.233 58.349 122.363 58.1797C122.559 57.9323 122.812 57.7695 123.125 57.6914C123.229 57.6784 123.327 57.6719 123.418 57.6719C123.626 57.6719 123.828 57.7174 124.023 57.8086C124.714 58.1732 125.293 58.4792 125.762 58.7266ZM124.785 64.1562C125.072 64.2995 125.247 64.5273 125.312 64.8398C125.339 64.918 125.352 65.0026 125.352 65.0938C125.352 65.3021 125.286 65.4974 125.156 65.6797L125.117 65.7383C124.948 65.9987 124.707 66.1615 124.395 66.2266C124.303 66.2526 124.212 66.2656 124.121 66.2656C123.913 66.2656 123.711 66.207 123.516 66.0898C123.047 65.8034 122.448 65.4583 121.719 65.0547C121.458 64.9245 121.302 64.7161 121.25 64.4297C121.224 64.3516 121.211 64.2799 121.211 64.2148C121.211 64.0195 121.276 63.8372 121.406 63.668C121.589 63.4076 121.829 63.2383 122.129 63.1602C122.246 63.1341 122.357 63.1211 122.461 63.1211C122.656 63.1211 122.845 63.1667 123.027 63.2578C123.757 63.6224 124.342 63.9219 124.785 64.1562ZM123.652 74.5469C123.483 74.8073 123.249 74.9635 122.949 75.0156C122.884 75.0156 122.826 75.0156 122.773 75.0156C122.539 75.0156 122.331 74.944 122.148 74.8008L121.934 74.625C121.686 74.4167 121.536 74.1562 121.484 73.8438C121.471 73.7786 121.465 73.7135 121.465 73.6484C121.465 73.401 121.536 73.1667 121.68 72.9453C122.604 71.5651 123.477 70.1198 124.297 68.6094C124.44 68.362 124.655 68.2122 124.941 68.1602C124.993 68.1471 125.046 68.1406 125.098 68.1406C125.319 68.1406 125.514 68.2188 125.684 68.375L125.723 68.4141C125.983 68.6484 126.139 68.9349 126.191 69.2734C126.217 69.3646 126.23 69.4557 126.23 69.5469C126.23 69.7812 126.172 70.0091 126.055 70.2305C125.247 71.7669 124.447 73.2057 123.652 74.5469ZM135.879 72.7695C135.97 72.7695 136.016 72.7174 136.016 72.6133V69.957C136.016 69.8659 135.97 69.8203 135.879 69.8203H130.156C130.052 69.8203 130 69.8659 130 69.957V72.6133C130 72.7174 130.052 72.7695 130.156 72.7695H135.879ZM138.945 63.1992C139.167 63.4206 139.277 63.6875 139.277 64C139.277 64.3125 139.167 64.5794 138.945 64.8008C138.724 65.0221 138.457 65.1328 138.145 65.1328H134.355C134.251 65.1328 134.199 65.1849 134.199 65.2891V67.5156C134.199 67.6068 134.251 67.6523 134.355 67.6523H137.129C137.441 67.6523 137.708 67.7695 137.93 68.0039C138.164 68.2253 138.281 68.4922 138.281 68.8047V74.5078C138.281 74.8203 138.171 75.0872 137.949 75.3086C137.728 75.5299 137.461 75.6406 137.148 75.6406H136.66C136.478 75.6406 136.322 75.5755 136.191 75.4453C136.074 75.3281 136.016 75.1784 136.016 74.9961C136.016 74.944 135.99 74.918 135.938 74.918H130.098C130.033 74.918 130 74.9505 130 75.0156C130 75.2109 129.928 75.3802 129.785 75.5234C129.642 75.6667 129.473 75.7383 129.277 75.7383H128.926C128.639 75.7383 128.385 75.6341 128.164 75.4258C127.956 75.2174 127.852 74.9635 127.852 74.6641V68.8047C127.852 68.4922 127.962 68.2253 128.184 68.0039C128.418 67.7695 128.691 67.6523 129.004 67.6523H131.797C131.888 67.6523 131.934 67.6068 131.934 67.5156V65.2891C131.934 65.1849 131.888 65.1328 131.797 65.1328H127.754C127.441 65.1328 127.174 65.0221 126.953 64.8008C126.732 64.5794 126.621 64.3125 126.621 64C126.621 63.6875 126.732 63.4206 126.953 63.1992C127.174 62.9779 127.441 62.8672 127.754 62.8672H131.797C131.888 62.8672 131.934 62.8151 131.934 62.7109V60.6602C131.934 60.569 131.888 60.5299 131.797 60.543C131.003 60.6602 130.104 60.7708 129.102 60.875C129.062 60.875 129.023 60.875 128.984 60.875C128.737 60.875 128.509 60.8034 128.301 60.6602C128.053 60.4779 127.878 60.237 127.773 59.9375C127.747 59.8464 127.734 59.7487 127.734 59.6445C127.734 59.5013 127.773 59.3581 127.852 59.2148C127.982 58.9805 128.184 58.8503 128.457 58.8242C131.374 58.4857 133.763 58.0234 135.625 57.4375C135.82 57.3724 136.016 57.3398 136.211 57.3398C136.354 57.3398 136.497 57.3594 136.641 57.3984C136.992 57.4766 137.285 57.6393 137.52 57.8867L137.754 58.1211C137.897 58.2643 137.969 58.4271 137.969 58.6094C137.969 58.6745 137.962 58.7396 137.949 58.8047C137.884 59.0651 137.728 59.2344 137.48 59.3125C136.556 59.612 135.508 59.8724 134.336 60.0938C134.245 60.1068 134.199 60.1654 134.199 60.2695V62.7109C134.199 62.8151 134.251 62.8672 134.355 62.8672H138.145C138.457 62.8672 138.724 62.9779 138.945 63.1992ZM151.309 72.3789C151.204 72.3789 151.152 72.431 151.152 72.5352V73.1602C151.152 73.2513 151.204 73.2969 151.309 73.2969H153.262C153.353 73.2969 153.398 73.2513 153.398 73.1602V72.5352C153.398 72.431 153.353 72.3789 153.262 72.3789H151.309ZM153.262 68.3945C153.353 68.3945 153.398 68.349 153.398 68.2578V67.6719C153.398 67.5677 153.353 67.5156 153.262 67.5156H151.309C151.204 67.5156 151.152 67.5677 151.152 67.6719V68.2578C151.152 68.349 151.204 68.3945 151.309 68.3945H153.262ZM153.262 70.8359C153.353 70.8359 153.398 70.7904 153.398 70.6992V70.1133C153.398 70.0091 153.353 69.957 153.262 69.957H151.309C151.204 69.957 151.152 70.0091 151.152 70.1133V70.6992C151.152 70.7904 151.204 70.8359 151.309 70.8359H153.262ZM143.574 59.9375C143.47 59.9375 143.418 59.9896 143.418 60.0938V62.5742C143.418 62.6654 143.47 62.7109 143.574 62.7109H145.254C145.345 62.7109 145.391 62.6654 145.391 62.5742V60.0938C145.391 59.9896 145.345 59.9375 145.254 59.9375H143.574ZM158.301 73.2969C158.574 73.2969 158.802 73.3945 158.984 73.5898C159.167 73.7721 159.258 73.9935 159.258 74.2539C159.258 74.5143 159.167 74.7357 158.984 74.918C158.802 75.1003 158.574 75.1914 158.301 75.1914H151.211C151.172 75.1914 151.152 75.2109 151.152 75.25C151.152 75.3802 151.107 75.4909 151.016 75.582C150.938 75.6732 150.833 75.7188 150.703 75.7188H150.098C149.798 75.7188 149.544 75.6146 149.336 75.4062C149.128 75.1979 149.023 74.944 149.023 74.6445V69.7422C149.023 69.7161 149.01 69.7031 148.984 69.7031C148.971 69.6901 148.952 69.6901 148.926 69.7031C148.757 69.8854 148.548 69.9766 148.301 69.9766C148.288 69.9766 148.268 69.9766 148.242 69.9766C147.982 69.9635 147.754 69.8529 147.559 69.6445C147.363 69.4362 147.181 69.2539 147.012 69.0977C146.934 69.0326 146.849 69 146.758 69H145.879C145.788 69 145.742 69.0521 145.742 69.1562V71.6758C145.742 71.7669 145.788 71.806 145.879 71.793C146.087 71.7409 146.445 71.6562 146.953 71.5391C147.031 71.526 147.103 71.5195 147.168 71.5195C147.35 71.5195 147.526 71.5781 147.695 71.6953C147.917 71.8516 148.04 72.0664 148.066 72.3398C148.079 72.3919 148.086 72.4375 148.086 72.4766C148.086 72.7109 148.014 72.9323 147.871 73.1406C147.702 73.375 147.474 73.5312 147.188 73.6094C145.195 74.0781 143.431 74.4883 141.895 74.8398C141.816 74.8529 141.738 74.8594 141.66 74.8594C141.452 74.8594 141.257 74.8008 141.074 74.6836C140.827 74.5143 140.677 74.2799 140.625 73.9805L140.566 73.707C140.553 73.6549 140.547 73.6029 140.547 73.5508C140.547 73.3945 140.599 73.2448 140.703 73.1016C140.833 72.9062 141.009 72.7891 141.23 72.75C141.309 72.737 141.348 72.6979 141.348 72.6328V66.8906C141.348 66.6562 141.432 66.4544 141.602 66.2852C141.771 66.1029 141.973 66.0117 142.207 66.0117C142.454 66.0117 142.663 66.1029 142.832 66.2852C143.014 66.4544 143.105 66.6562 143.105 66.8906V72.2422C143.105 72.3333 143.151 72.3659 143.242 72.3398L143.691 72.2422C143.796 72.2292 143.848 72.1706 143.848 72.0664V64.8008C143.848 64.7096 143.796 64.6641 143.691 64.6641H142.676C142.35 64.6641 142.077 64.5534 141.855 64.332C141.634 64.0977 141.523 63.8242 141.523 63.5117V59.1367C141.523 58.8112 141.634 58.5378 141.855 58.3164C142.077 58.0951 142.35 57.9844 142.676 57.9844H146.289C146.602 57.9844 146.868 58.0951 147.09 58.3164C147.324 58.5378 147.441 58.8112 147.441 59.1367V63.5117C147.441 63.8242 147.324 64.0977 147.09 64.332C146.868 64.5534 146.602 64.6641 146.289 64.6641H145.879C145.788 64.6641 145.742 64.7096 145.742 64.8008V66.8516C145.742 66.9557 145.788 67.0078 145.879 67.0078H146.777C147.012 67.0078 147.214 67.0924 147.383 67.2617C147.552 67.431 147.637 67.6328 147.637 67.8672C147.637 67.8802 147.643 67.8932 147.656 67.9062C147.682 67.9062 147.702 67.9062 147.715 67.9062C148.587 66.9036 149.297 65.7513 149.844 64.4492C149.857 64.4232 149.85 64.3971 149.824 64.3711C149.811 64.332 149.785 64.3125 149.746 64.3125H148.906C148.685 64.3125 148.496 64.2344 148.34 64.0781C148.184 63.9219 148.105 63.7331 148.105 63.5117C148.105 63.2904 148.184 63.1016 148.34 62.9453C148.496 62.776 148.685 62.6914 148.906 62.6914H150.957C151.048 62.6914 151.094 62.6458 151.094 62.5547V62.0273C151.094 61.9232 151.048 61.8711 150.957 61.8711H149.199C148.978 61.8711 148.789 61.793 148.633 61.6367C148.477 61.4805 148.398 61.2982 148.398 61.0898C148.398 60.8685 148.477 60.6797 148.633 60.5234C148.789 60.3672 148.978 60.2891 149.199 60.2891H150.957C151.048 60.2891 151.094 60.237 151.094 60.1328V59.625C151.094 59.5339 151.048 59.4883 150.957 59.4883H149.004C148.77 59.4883 148.574 59.4102 148.418 59.2539C148.262 59.0846 148.184 58.8893 148.184 58.668C148.184 58.4336 148.262 58.2383 148.418 58.082C148.574 57.9258 148.77 57.8477 149.004 57.8477H151.973C152.285 57.8477 152.552 57.9583 152.773 58.1797C153.008 58.401 153.125 58.6745 153.125 59V63.1602C153.125 63.4857 153.008 63.7591 152.773 63.9805C152.552 64.2018 152.285 64.3125 151.973 64.3125H151.523C151.51 64.3125 151.504 64.319 151.504 64.332C151.504 64.3451 151.51 64.3516 151.523 64.3516C151.719 64.4036 151.862 64.5273 151.953 64.7227C152.044 64.9049 152.044 65.0872 151.953 65.2695C151.901 65.3737 151.849 65.4714 151.797 65.5625C151.784 65.5885 151.784 65.6146 151.797 65.6406C151.823 65.6667 151.849 65.6797 151.875 65.6797H153.613C153.717 65.6797 153.783 65.6341 153.809 65.543C153.978 65.1654 154.128 64.7747 154.258 64.3711C154.271 64.332 154.258 64.3125 154.219 64.3125C154.076 64.3125 153.952 64.2669 153.848 64.1758C153.757 64.0716 153.711 63.9544 153.711 63.8242V63.5117C153.711 63.2904 153.789 63.1016 153.945 62.9453C154.115 62.776 154.31 62.6914 154.531 62.6914H156.641C156.732 62.6914 156.777 62.6458 156.777 62.5547V62.0273C156.777 61.9232 156.732 61.8711 156.641 61.8711H154.766C154.544 61.8711 154.355 61.793 154.199 61.6367C154.043 61.4805 153.965 61.2982 153.965 61.0898C153.965 60.8685 154.043 60.6797 154.199 60.5234C154.355 60.3672 154.544 60.2891 154.766 60.2891H156.641C156.732 60.2891 156.777 60.237 156.777 60.1328V59.625C156.777 59.5339 156.732 59.4883 156.641 59.4883H154.531C154.31 59.4883 154.115 59.4102 153.945 59.2539C153.789 59.0846 153.711 58.8893 153.711 58.668C153.711 58.4336 153.789 58.2383 153.945 58.082C154.115 57.9258 154.31 57.8477 154.531 57.8477H157.676C157.988 57.8477 158.255 57.9583 158.477 58.1797C158.711 58.401 158.828 58.6745 158.828 59V63.1602C158.828 63.4857 158.711 63.7591 158.477 63.9805C158.255 64.2018 157.988 64.3125 157.676 64.3125H155.859C155.846 64.3125 155.84 64.319 155.84 64.332C155.84 64.332 155.846 64.3385 155.859 64.3516C156.055 64.3906 156.185 64.5013 156.25 64.6836C156.328 64.8529 156.315 65.0221 156.211 65.1914C156.12 65.3607 156.055 65.4779 156.016 65.543C156.003 65.582 156.003 65.6146 156.016 65.6406C156.029 65.6667 156.055 65.6797 156.094 65.6797H158.086C158.333 65.6797 158.548 65.7708 158.73 65.9531C158.913 66.1354 159.004 66.3568 159.004 66.6172C159.004 66.8646 158.913 67.0794 158.73 67.2617C158.548 67.431 158.333 67.5156 158.086 67.5156H155.586C155.495 67.5156 155.449 67.5677 155.449 67.6719V68.2578C155.449 68.349 155.495 68.3945 155.586 68.3945H157.539C157.76 68.3945 157.943 68.4727 158.086 68.6289C158.242 68.7852 158.32 68.974 158.32 69.1953C158.32 69.4036 158.242 69.5859 158.086 69.7422C157.943 69.8854 157.76 69.957 157.539 69.957H155.586C155.495 69.957 155.449 70.0091 155.449 70.1133V70.6992C155.449 70.7904 155.495 70.8359 155.586 70.8359H157.559C157.767 70.8359 157.943 70.9141 158.086 71.0703C158.242 71.2135 158.32 71.3958 158.32 71.6172C158.32 71.8255 158.242 72.0078 158.086 72.1641C157.943 72.3073 157.767 72.3789 157.559 72.3789H155.586C155.495 72.3789 155.449 72.431 155.449 72.5352V73.1602C155.449 73.2513 155.495 73.2969 155.586 73.2969H158.301ZM171.406 67.0469C171.406 67.151 171.458 67.2031 171.562 67.2031H175.469C175.573 67.2031 175.625 67.151 175.625 67.0469V64.8984C175.625 64.7943 175.573 64.7422 175.469 64.7422H171.562C171.458 64.7422 171.406 64.7943 171.406 64.8984V67.0469ZM165.176 67.0469C165.176 67.151 165.221 67.2031 165.312 67.2031H168.867C168.958 67.2031 169.004 67.151 169.004 67.0469V64.8984C169.004 64.7943 168.958 64.7422 168.867 64.7422H165.391C165.286 64.7422 165.234 64.7943 165.234 64.8984V65.1133C165.234 65.7253 165.215 66.3698 165.176 67.0469ZM169.004 60.3672C169.004 60.263 168.958 60.2109 168.867 60.2109H165.391C165.286 60.2109 165.234 60.263 165.234 60.3672V62.3984C165.234 62.4896 165.286 62.5352 165.391 62.5352H168.867C168.958 62.5352 169.004 62.4896 169.004 62.3984V60.3672ZM175.469 62.5352C175.573 62.5352 175.625 62.4896 175.625 62.3984V60.3672C175.625 60.263 175.573 60.2109 175.469 60.2109H171.562C171.458 60.2109 171.406 60.263 171.406 60.3672V62.3984C171.406 62.4896 171.458 62.5352 171.562 62.5352H175.469ZM176.836 57.9453C177.148 57.9453 177.415 58.0625 177.637 58.2969C177.871 58.5182 177.988 58.7852 177.988 59.0977V72.4766C177.988 73.1276 177.904 73.6289 177.734 73.9805C177.578 74.319 177.298 74.5729 176.895 74.7422C176.387 74.9896 175.495 75.1328 174.219 75.1719C174.206 75.1719 174.193 75.1719 174.18 75.1719C173.867 75.1719 173.587 75.0677 173.34 74.8594C173.079 74.651 172.897 74.3841 172.793 74.0586C172.78 74.0195 172.767 73.987 172.754 73.9609C172.715 73.8568 172.695 73.7591 172.695 73.668C172.695 73.5247 172.741 73.3815 172.832 73.2383C172.975 73.0299 173.177 72.9258 173.438 72.9258C173.451 72.9258 173.457 72.9258 173.457 72.9258C173.913 72.9258 174.46 72.9258 175.098 72.9258C175.449 72.9258 175.625 72.7695 175.625 72.457V69.5859C175.625 69.4948 175.573 69.4492 175.469 69.4492H171.562C171.458 69.4492 171.406 69.4948 171.406 69.5859V73.8828C171.406 74.1953 171.289 74.4622 171.055 74.6836C170.833 74.918 170.566 75.0352 170.254 75.0352H170.156C169.844 75.0352 169.57 74.918 169.336 74.6836C169.115 74.4622 169.004 74.1953 169.004 73.8828V69.5859C169.004 69.4948 168.958 69.4492 168.867 69.4492H165.078C164.974 69.4492 164.915 69.4948 164.902 69.5859C164.564 71.5911 163.971 73.2253 163.125 74.4883C162.956 74.7357 162.708 74.8659 162.383 74.8789C162.37 74.8789 162.357 74.8789 162.344 74.8789C162.044 74.8789 161.79 74.7812 161.582 74.5859C161.556 74.5729 161.536 74.5599 161.523 74.5469C161.51 74.5339 161.491 74.5208 161.465 74.5078C161.23 74.3125 161.094 74.0651 161.055 73.7656C161.042 73.7005 161.035 73.6354 161.035 73.5703C161.035 73.349 161.1 73.1406 161.23 72.9453C161.452 72.6068 161.641 72.2552 161.797 71.8906C162.135 71.1745 162.376 70.3997 162.52 69.5664C162.663 68.7331 162.754 67.9974 162.793 67.3594C162.845 66.7083 162.871 65.9531 162.871 65.0938V59.0977C162.871 58.7852 162.982 58.5182 163.203 58.2969C163.438 58.0625 163.711 57.9453 164.023 57.9453H176.836ZM185.703 67.3203C185.69 67.4115 185.729 67.457 185.82 67.457H194.473C194.577 67.457 194.629 67.4115 194.629 67.3203V64.6836C194.629 64.5924 194.577 64.5469 194.473 64.5469H185.957C185.866 64.5469 185.82 64.5924 185.82 64.6836C185.82 65.543 185.781 66.4219 185.703 67.3203ZM185.82 62.2031C185.82 62.2943 185.866 62.3398 185.957 62.3398H195.879C196.204 62.3398 196.478 62.457 196.699 62.6914C196.921 62.9128 197.031 63.1797 197.031 63.4922V69.5273C197.031 69.8398 196.921 70.1133 196.699 70.3477C196.478 70.569 196.204 70.6797 195.879 70.6797H195.527C195.28 70.6797 195.065 70.5951 194.883 70.4258C194.714 70.2435 194.629 70.0286 194.629 69.7812C194.629 69.7031 194.59 69.6641 194.512 69.6641H185.508C185.404 69.6641 185.345 69.7096 185.332 69.8008C184.902 71.832 184.232 73.5117 183.32 74.8398C183.151 75.0742 182.91 75.1979 182.598 75.2109C182.598 75.2109 182.591 75.2109 182.578 75.2109C182.279 75.2109 182.025 75.1068 181.816 74.8984C181.764 74.8594 181.706 74.8138 181.641 74.7617C181.406 74.5794 181.27 74.3385 181.23 74.0391C181.217 73.9609 181.211 73.8893 181.211 73.8242C181.211 73.6029 181.27 73.3945 181.387 73.1992C181.816 72.5482 182.174 71.8451 182.461 71.0898C182.747 70.3216 182.956 69.5339 183.086 68.7266C183.216 67.9193 183.301 67.1966 183.34 66.5586C183.379 65.9206 183.398 65.2174 183.398 64.4492V59.7812C183.398 59.4818 183.516 59.2474 183.75 59.0781C183.906 58.9479 184.076 58.8828 184.258 58.8828C184.336 58.8828 184.421 58.8958 184.512 58.9219L184.863 59.0195C184.954 59.0456 185.046 59.0521 185.137 59.0391C188.444 58.6224 191.27 58.082 193.613 57.418C193.809 57.3659 194.004 57.3398 194.199 57.3398C194.342 57.3398 194.492 57.3594 194.648 57.3984C195 57.4766 195.306 57.6328 195.566 57.8672L195.781 58.0625C195.924 58.2057 195.996 58.362 195.996 58.5312C195.996 58.5833 195.99 58.6419 195.977 58.707C195.911 58.9544 195.755 59.1107 195.508 59.1758C192.891 59.8919 189.707 60.4714 185.957 60.9141C185.866 60.9271 185.82 60.9857 185.82 61.0898V62.2031Z" fill="white"/>
<path d="M38.5 96.4062C38.6562 96.7448 38.7344 97.0703 38.7344 97.3828C38.7344 97.6172 38.6953 97.8646 38.6172 98.125C38.4089 98.6979 38.0182 99.1406 37.4453 99.4531C37.1589 99.6094 36.8594 99.6875 36.5469 99.6875C36.3385 99.6875 36.1172 99.6484 35.8828 99.5703C35.362 99.362 34.9714 98.9974 34.7109 98.4766C34.1901 97.4089 33.5911 96.3281 32.9141 95.2344C32.7318 94.9219 32.6406 94.5964 32.6406 94.2578C32.6406 94.1016 32.6536 93.9453 32.6797 93.7891C32.8099 93.2682 33.1224 92.8776 33.6172 92.6172C33.9557 92.4349 34.3073 92.3438 34.6719 92.3438C34.8542 92.3438 35.0365 92.3698 35.2188 92.4219C35.7917 92.5521 36.2474 92.8516 36.5859 93.3203C37.3672 94.4661 38.0052 95.4948 38.5 96.4062ZM19.0078 97.7344C19.2161 97.7344 19.3203 97.6302 19.3203 97.4219V95.4297C19.3203 95.2214 19.2161 95.1172 19.0078 95.1172H17.4844C17.3021 95.1172 17.2109 95.2214 17.2109 95.4297V97.4219C17.2109 97.6302 17.3021 97.7344 17.4844 97.7344H19.0078ZM20.5703 92.1484C21.2214 92.1484 21.7682 92.3828 22.2109 92.8516C22.6536 93.2943 22.875 93.8281 22.875 94.4531V98.3984C22.875 99.0495 22.6536 99.5964 22.2109 100.039C21.7682 100.482 21.2214 100.703 20.5703 100.703H16.1562C15.5052 100.703 14.9583 100.482 14.5156 100.039C14.0729 99.5964 13.8516 99.0495 13.8516 98.3984V94.4531C13.8516 93.8281 14.0729 93.2943 14.5156 92.8516C14.9583 92.3828 15.5052 92.1484 16.1562 92.1484H20.5703ZM8.57812 97.7344C8.78646 97.7344 8.89062 97.6302 8.89062 97.4219V95.4297C8.89062 95.2214 8.78646 95.1172 8.57812 95.1172H7.09375C6.88542 95.1172 6.78125 95.2214 6.78125 95.4297V97.4219C6.78125 97.6302 6.88542 97.7344 7.09375 97.7344H8.57812ZM10.0625 92.1484C10.6875 92.1484 11.2214 92.3828 11.6641 92.8516C12.1328 93.2943 12.3672 93.8281 12.3672 94.4531V98.3984C12.3672 99.0495 12.1328 99.5964 11.6641 100.039C11.2214 100.482 10.6875 100.703 10.0625 100.703H5.6875C5.0625 100.703 4.51562 100.482 4.04688 100.039C3.60417 99.5964 3.38281 99.0495 3.38281 98.3984V94.4531C3.38281 93.8281 3.60417 93.2943 4.04688 92.8516C4.51562 92.3828 5.0625 92.1484 5.6875 92.1484H10.0625ZM8.03125 111.094C7.82292 111.094 7.71875 111.185 7.71875 111.367V112.93C7.71875 113.138 7.82292 113.242 8.03125 113.242H10.7656C10.9479 113.242 11.0391 113.138 11.0391 112.93V111.367C11.0391 111.185 10.9479 111.094 10.7656 111.094H8.03125ZM8.03125 105.703C7.82292 105.703 7.71875 105.807 7.71875 106.016V107.5C7.71875 107.708 7.82292 107.812 8.03125 107.812H10.7656C10.9479 107.812 11.0391 107.708 11.0391 107.5V106.016C11.0391 105.807 10.9479 105.703 10.7656 105.703H8.03125ZM18.1484 107.812C18.3307 107.812 18.4219 107.708 18.4219 107.5V106.016C18.4219 105.807 18.3307 105.703 18.1484 105.703H15.3359C15.1276 105.703 15.0234 105.807 15.0234 106.016V107.5C15.0234 107.708 15.1276 107.812 15.3359 107.812H18.1484ZM18.1484 113.242C18.3307 113.242 18.4219 113.138 18.4219 112.93V111.367C18.4219 111.185 18.3307 111.094 18.1484 111.094H15.3359C15.1276 111.094 15.0234 111.185 15.0234 111.367V112.93C15.0234 113.138 15.1276 113.242 15.3359 113.242H18.1484ZM22.9531 119.336C23.3698 119.727 23.5781 120.221 23.5781 120.82C23.5781 121.393 23.3698 121.888 22.9531 122.305C22.5365 122.695 22.0417 122.891 21.4688 122.891H15.5703C15.388 122.891 15.2969 122.982 15.2969 123.164V126.211C15.2969 126.836 15.0755 127.37 14.6328 127.812C14.1901 128.255 13.6562 128.477 13.0312 128.477C12.4062 128.477 11.8724 128.255 11.4297 127.812C10.987 127.37 10.7656 126.836 10.7656 126.211V123.164C10.7656 122.982 10.6615 122.891 10.4531 122.891H4.32031C3.7474 122.891 3.2526 122.695 2.83594 122.305C2.44531 121.888 2.25 121.393 2.25 120.82C2.25 120.221 2.44531 119.727 2.83594 119.336C3.2526 118.919 3.7474 118.711 4.32031 118.711H10.4531C10.6615 118.711 10.7656 118.62 10.7656 118.438V117.031C10.7656 116.823 10.6615 116.719 10.4531 116.719H6.11719C5.46615 116.719 4.91927 116.497 4.47656 116.055C4.03385 115.586 3.8125 115.039 3.8125 114.414V104.531C3.8125 103.906 4.03385 103.372 4.47656 102.93C4.91927 102.461 5.46615 102.227 6.11719 102.227H20.2578C20.8828 102.227 21.4167 102.461 21.8594 102.93C22.3281 103.372 22.5625 103.906 22.5625 104.531V114.414C22.5625 115.039 22.3281 115.586 21.8594 116.055C21.4167 116.497 20.8828 116.719 20.2578 116.719H15.5703C15.388 116.719 15.2969 116.823 15.2969 117.031V118.438C15.2969 118.62 15.388 118.711 15.5703 118.711H21.4688C22.0417 118.711 22.5365 118.919 22.9531 119.336ZM34.5547 108.281C34.763 107.76 35.1146 107.409 35.6094 107.227C35.8177 107.148 36.026 107.109 36.2344 107.109C36.4948 107.109 36.7682 107.174 37.0547 107.305C37.5755 107.617 37.9401 108.047 38.1484 108.594C38.2526 108.88 38.3047 109.167 38.3047 109.453C38.3047 109.714 38.2526 109.987 38.1484 110.273C36.9766 113.346 35.4271 116.25 33.5 118.984C33.3698 119.167 33.3438 119.349 33.4219 119.531C34.099 121.667 34.8281 122.773 35.6094 122.852C36.1042 122.852 36.4688 121.745 36.7031 119.531C36.7552 119.115 36.9766 118.841 37.3672 118.711C37.7578 118.555 38.1354 118.594 38.5 118.828C39.0469 119.245 39.4505 119.753 39.7109 120.352C39.9193 120.768 40.0234 121.185 40.0234 121.602C40.0234 121.81 39.9974 122.005 39.9453 122.188C39.0599 126.406 37.6146 128.516 35.6094 128.516C35.6094 128.516 35.5964 128.516 35.5703 128.516C33.3047 128.411 31.4688 126.771 30.0625 123.594C29.9844 123.411 29.8802 123.385 29.75 123.516C28.526 124.792 27.224 125.911 25.8438 126.875C25.401 127.135 24.9453 127.266 24.4766 127.266C24.3203 127.266 24.1771 127.253 24.0469 127.227C23.3958 127.122 22.8229 126.836 22.3281 126.367C22.3021 126.315 22.263 126.276 22.2109 126.25C21.9505 125.99 21.7943 125.703 21.7422 125.391C21.7161 125.26 21.7031 125.143 21.7031 125.039C21.7031 124.831 21.7422 124.622 21.8203 124.414C21.9505 124.102 22.1719 123.854 22.4844 123.672C24.5417 122.422 26.4818 120.781 28.3047 118.75C28.4089 118.594 28.4479 118.424 28.4219 118.242C27.7448 115.247 27.1979 111.536 26.7812 107.109C26.7552 106.901 26.651 106.81 26.4688 106.836L25.6484 106.953C25.5443 106.953 25.4401 106.953 25.3359 106.953C24.8672 106.953 24.4245 106.797 24.0078 106.484C23.5391 106.094 23.2656 105.599 23.1875 105C23.1875 104.922 23.1875 104.831 23.1875 104.727C23.1875 104.232 23.3438 103.776 23.6562 103.359C24.0469 102.891 24.5417 102.617 25.1406 102.539L26.1562 102.383C26.3385 102.357 26.4297 102.253 26.4297 102.07C26.1693 97.8255 26.0391 94.987 26.0391 93.5547C26.0391 92.9557 26.2474 92.4479 26.6641 92.0312C27.1068 91.5885 27.6406 91.3672 28.2656 91.3672C28.8906 91.3672 29.4245 91.5885 29.8672 92.0312C30.3099 92.474 30.5443 93.0078 30.5703 93.6328C30.6224 96.4193 30.7135 99.0625 30.8438 101.562C30.8698 101.745 30.974 101.823 31.1562 101.797L37.2109 101.055C37.3151 101.055 37.4193 101.055 37.5234 101.055C37.9922 101.055 38.4219 101.211 38.8125 101.523C39.3073 101.888 39.5807 102.37 39.6328 102.969C39.6589 103.073 39.6719 103.164 39.6719 103.242C39.6719 103.737 39.5026 104.193 39.1641 104.609C38.7995 105.078 38.3177 105.352 37.7188 105.43L31.5469 106.211C31.3385 106.237 31.2474 106.341 31.2734 106.523C31.5078 108.997 31.7682 111.224 32.0547 113.203C32.0547 113.255 32.0677 113.281 32.0938 113.281C32.1458 113.281 32.1849 113.268 32.2109 113.242C33.1224 111.628 33.9036 109.974 34.5547 108.281ZM45.6484 108.828C45.5443 109.323 45.2839 109.688 44.8672 109.922C44.6068 110.052 44.3464 110.117 44.0859 110.117C43.9036 110.117 43.7214 110.091 43.5391 110.039C43.0443 109.857 42.6797 109.544 42.4453 109.102C42.2891 108.789 42.2109 108.477 42.2109 108.164C42.2109 108.008 42.224 107.852 42.25 107.695C42.7188 105.664 43.0703 103.333 43.3047 100.703C43.3568 100.234 43.5521 99.8568 43.8906 99.5703C44.2031 99.3359 44.5417 99.2188 44.9062 99.2188C44.9844 99.2188 45.0495 99.2188 45.1016 99.2188C45.5964 99.2708 46 99.4922 46.3125 99.8828C46.599 100.195 46.7422 100.573 46.7422 101.016C46.7422 102.891 46.3776 105.495 45.6484 108.828ZM60.4531 118.945C60.4531 119.154 60.5443 119.258 60.7266 119.258H72.0938C72.3021 119.258 72.4062 119.154 72.4062 118.945V117.695C72.4062 117.487 72.3021 117.383 72.0938 117.383H60.7266C60.5443 117.383 60.4531 117.487 60.4531 117.695V118.945ZM72.4062 112.461C72.4062 112.253 72.3021 112.148 72.0938 112.148H60.7266C60.5443 112.148 60.4531 112.253 60.4531 112.461V113.75C60.4531 113.932 60.5443 114.023 60.7266 114.023H72.0938C72.3021 114.023 72.4062 113.932 72.4062 113.75V112.461ZM74.5938 108.672C75.2188 108.672 75.7526 108.906 76.1953 109.375C76.6641 109.818 76.8984 110.352 76.8984 110.977V123.906C76.8984 125 76.7552 125.833 76.4688 126.406C76.2083 127.005 75.7266 127.461 75.0234 127.773C74.2161 128.164 72.875 128.385 71 128.438C70.974 128.438 70.9609 128.438 70.9609 128.438C70.362 128.438 69.8411 128.242 69.3984 127.852C68.9036 127.461 68.5651 126.966 68.3828 126.367C68.3307 126.211 68.3047 126.055 68.3047 125.898C68.3047 125.612 68.3958 125.339 68.5781 125.078C68.8385 124.688 69.2161 124.492 69.7109 124.492C70.0755 124.492 70.349 124.492 70.5312 124.492C70.7396 124.492 70.9609 124.492 71.1953 124.492C71.4557 124.492 71.599 124.492 71.625 124.492C71.9115 124.492 72.1068 124.44 72.2109 124.336C72.3411 124.232 72.4062 124.062 72.4062 123.828V122.812C72.4062 122.63 72.3021 122.539 72.0938 122.539H60.7266C60.5443 122.539 60.4531 122.63 60.4531 122.812V126.328C60.4531 126.927 60.2318 127.435 59.7891 127.852C59.3724 128.294 58.8516 128.516 58.2266 128.516C57.6276 128.516 57.1068 128.294 56.6641 127.852C56.2474 127.435 56.0391 126.927 56.0391 126.328V110.977C56.0391 110.352 56.2604 109.818 56.7031 109.375C57.1719 108.906 57.7188 108.672 58.3438 108.672H74.5938ZM68.6953 103.477C68.6953 103.659 68.7865 103.75 68.9688 103.75H77.875C78.3438 103.75 78.7344 103.919 79.0469 104.258C79.3854 104.596 79.5547 105 79.5547 105.469C79.5547 105.938 79.3854 106.341 79.0469 106.68C78.7344 106.992 78.3438 107.148 77.875 107.148H55.0625C54.5938 107.148 54.1901 106.992 53.8516 106.68C53.513 106.341 53.3438 105.938 53.3438 105.469C53.3438 105 53.513 104.596 53.8516 104.258C54.1901 103.919 54.5938 103.75 55.0625 103.75H63.6562C63.8646 103.75 63.9688 103.659 63.9688 103.477V102.344C63.9688 102.135 63.8646 102.031 63.6562 102.031H55.6875C55.6875 102.031 55.6875 102.044 55.6875 102.07C55.7396 102.174 55.7005 102.253 55.5703 102.305L54.2031 103.008C53.9948 103.112 53.7865 103.164 53.5781 103.164C53.3698 103.164 53.1745 103.112 52.9922 103.008C52.5755 102.826 52.3021 102.526 52.1719 102.109C51.9115 101.276 51.612 100.443 51.2734 99.6094C51.2474 99.5833 51.2214 99.5833 51.1953 99.6094C51.1693 99.6094 51.1562 99.6224 51.1562 99.6484V126.289C51.1562 126.888 50.9479 127.396 50.5312 127.812C50.1146 128.229 49.6068 128.438 49.0078 128.438C48.4349 128.438 47.9401 128.229 47.5234 127.812C47.1068 127.396 46.8984 126.888 46.8984 126.289V93.2422C46.8984 92.6693 47.1068 92.1745 47.5234 91.7578C47.9401 91.3411 48.4349 91.1328 49.0078 91.1328C49.6068 91.1328 50.1146 91.3411 50.5312 91.7578C50.9479 92.1745 51.1562 92.6693 51.1562 93.2422V97.2266C51.1562 97.3047 51.1823 97.3698 51.2344 97.4219C51.2865 97.4479 51.3516 97.4479 51.4297 97.4219C51.7161 97.2917 52.0026 97.2266 52.2891 97.2266C52.5755 97.2266 52.849 97.2786 53.1094 97.3828C53.7083 97.5911 54.125 97.9818 54.3594 98.5547C54.8542 99.7266 55.2578 100.781 55.5703 101.719C55.5964 101.745 55.6224 101.758 55.6484 101.758C55.6745 101.758 55.6875 101.745 55.6875 101.719V101.133C55.6875 100.508 55.9089 99.974 56.3516 99.5312C56.7943 99.0625 57.3411 98.8281 57.9922 98.8281H63.6562C63.8646 98.8281 63.9688 98.737 63.9688 98.5547V97.5391C63.9688 97.3307 63.8646 97.2266 63.6562 97.2266H56.3125C55.8438 97.2266 55.4401 97.0703 55.1016 96.7578C54.763 96.4193 54.5938 96.0156 54.5938 95.5469C54.5938 95.0781 54.763 94.6745 55.1016 94.3359C55.4401 93.9974 55.8438 93.8281 56.3125 93.8281H63.6562C63.8646 93.8281 63.9688 93.737 63.9688 93.5547V93.4375C63.9688 92.7865 64.1901 92.2396 64.6328 91.7969C65.0755 91.3542 65.6224 91.1328 66.2734 91.1328H66.3906C67.0156 91.1328 67.5495 91.3542 67.9922 91.7969C68.4609 92.2396 68.6953 92.7865 68.6953 93.4375V93.5547C68.6953 93.737 68.7865 93.8281 68.9688 93.8281H76.6641C77.1328 93.8281 77.5234 93.9974 77.8359 94.3359C78.1745 94.6745 78.3438 95.0781 78.3438 95.5469C78.3438 96.0156 78.1745 96.4193 77.8359 96.7578C77.5234 97.0703 77.1328 97.2266 76.6641 97.2266H68.9688C68.7865 97.2266 68.6953 97.3307 68.6953 97.5391V98.5547C68.6953 98.737 68.7865 98.8281 68.9688 98.8281H75.6875C76.1302 98.8281 76.5078 98.9844 76.8203 99.2969C77.1328 99.6094 77.2891 99.987 77.2891 100.43C77.2891 100.872 77.1328 101.25 76.8203 101.562C76.5078 101.875 76.1302 102.031 75.6875 102.031H68.9688C68.7865 102.031 68.6953 102.135 68.6953 102.344V103.477ZM94.1641 97.5391C93.8776 97.2266 93.7344 96.862 93.7344 96.4453C93.7344 96.0026 93.8776 95.638 94.1641 95.3516C94.4766 95.0391 94.8411 94.8828 95.2578 94.8828H98.4609C98.5391 94.8828 98.5911 94.8568 98.6172 94.8047C98.6432 94.7526 98.6432 94.6875 98.6172 94.6094C98.513 94.4271 98.3958 94.2318 98.2656 94.0234C98.0833 93.763 97.9922 93.4896 97.9922 93.2031C97.9922 93.0469 98.0182 92.8776 98.0703 92.6953C98.2266 92.2266 98.5391 91.9141 99.0078 91.7578C99.3203 91.6276 99.6328 91.5625 99.9453 91.5625C100.206 91.5625 100.466 91.6016 100.727 91.6797C101.326 91.8359 101.794 92.1615 102.133 92.6562C102.576 93.3073 102.966 93.9583 103.305 94.6094C103.409 94.7917 103.552 94.8828 103.734 94.8828H108.188C108.396 94.8828 108.539 94.8047 108.617 94.6484C108.904 94.1797 109.203 93.6719 109.516 93.125C109.828 92.526 110.271 92.0833 110.844 91.7969C111.234 91.6146 111.625 91.5234 112.016 91.5234C112.25 91.5234 112.484 91.5625 112.719 91.6406L112.875 91.6797C113.422 91.8359 113.786 92.1745 113.969 92.6953C114.047 92.8776 114.086 93.0469 114.086 93.2031C114.086 93.5417 113.969 93.8542 113.734 94.1406C113.604 94.3229 113.461 94.4922 113.305 94.6484C113.279 94.7005 113.279 94.7526 113.305 94.8047C113.331 94.8568 113.37 94.8828 113.422 94.8828H116.781C117.198 94.8828 117.549 95.0391 117.836 95.3516C118.148 95.638 118.305 96.0026 118.305 96.4453C118.305 96.862 118.148 97.2266 117.836 97.5391C117.549 97.8255 117.198 97.9688 116.781 97.9688H108.422C108.214 97.9688 108.109 98.0599 108.109 98.2422V99.1406C108.109 99.349 108.214 99.4531 108.422 99.4531H115.492C115.909 99.4531 116.26 99.5964 116.547 99.8828C116.859 100.169 117.016 100.521 117.016 100.938C117.016 101.354 116.859 101.706 116.547 101.992C116.26 102.279 115.909 102.422 115.492 102.422H108.422C108.214 102.422 108.109 102.526 108.109 102.734V103.75C108.109 103.932 108.214 104.023 108.422 104.023H117.836C118.279 104.023 118.656 104.193 118.969 104.531C119.281 104.844 119.438 105.221 119.438 105.664C119.438 106.107 119.281 106.484 118.969 106.797C118.656 107.109 118.279 107.266 117.836 107.266H94.2031C93.7604 107.266 93.3828 107.109 93.0703 106.797C92.7578 106.484 92.6016 106.107 92.6016 105.664C92.6016 105.221 92.7578 104.844 93.0703 104.531C93.3828 104.193 93.7604 104.023 94.2031 104.023H103.188C103.37 104.023 103.461 103.932 103.461 103.75V102.734C103.461 102.526 103.37 102.422 103.188 102.422H96.5469C96.1302 102.422 95.7656 102.279 95.4531 101.992C95.1667 101.706 95.0234 101.354 95.0234 100.938C95.0234 100.521 95.1667 100.169 95.4531 99.8828C95.7656 99.5964 96.1302 99.4531 96.5469 99.4531H103.188C103.37 99.4531 103.461 99.349 103.461 99.1406V98.2422C103.461 98.0599 103.37 97.9688 103.188 97.9688H95.2578C94.8411 97.9688 94.4766 97.8255 94.1641 97.5391ZM89.4766 93.2422C89.7109 92.6693 90.1146 92.2526 90.6875 91.9922C91 91.8359 91.3255 91.7578 91.6641 91.7578C91.8984 91.7578 92.1328 91.7969 92.3672 91.875C92.9401 92.0573 93.3568 92.4089 93.6172 92.9297C93.7734 93.2161 93.8516 93.5026 93.8516 93.7891C93.8516 94.0495 93.7995 94.3099 93.6953 94.5703C92.888 96.4714 91.9635 98.3984 90.9219 100.352C90.8438 100.508 90.8047 100.69 90.8047 100.898V126.211C90.8047 126.81 90.5833 127.331 90.1406 127.773C89.6979 128.216 89.1641 128.438 88.5391 128.438C87.9401 128.438 87.4193 128.216 86.9766 127.773C86.5339 127.331 86.3125 126.81 86.3125 126.211V107.93C86.3125 107.878 86.2865 107.852 86.2344 107.852C86.2083 107.826 86.1823 107.839 86.1562 107.891C85.9219 108.151 85.7135 108.411 85.5312 108.672C85.2448 109.01 84.8932 109.18 84.4766 109.18C84.3984 109.18 84.3073 109.18 84.2031 109.18C83.6823 109.076 83.2917 108.789 83.0312 108.32C82.9531 108.112 82.862 107.917 82.7578 107.734C82.4974 107.24 82.3672 106.732 82.3672 106.211C82.3672 106.081 82.3802 105.951 82.4062 105.82C82.4844 105.143 82.7448 104.531 83.1875 103.984C85.6875 100.964 87.7839 97.3828 89.4766 93.2422ZM113.656 118.477C114.047 118.034 114.503 117.734 115.023 117.578C115.284 117.5 115.544 117.461 115.805 117.461C116.091 117.461 116.378 117.5 116.664 117.578C117.107 117.734 117.406 118.034 117.562 118.477C117.615 118.633 117.641 118.776 117.641 118.906C117.641 119.193 117.536 119.466 117.328 119.727C116.443 120.768 115.414 121.797 114.242 122.812C114.086 122.943 114.06 123.086 114.164 123.242C114.789 124.18 115.44 124.648 116.117 124.648C116.508 124.648 116.781 124.31 116.938 123.633C117.016 123.294 117.224 123.06 117.562 122.93C117.901 122.773 118.227 122.786 118.539 122.969C119.008 123.229 119.359 123.581 119.594 124.023C119.776 124.31 119.867 124.609 119.867 124.922C119.867 125.078 119.841 125.234 119.789 125.391C119.477 126.589 119.021 127.409 118.422 127.852C117.823 128.294 116.951 128.529 115.805 128.555C113.93 128.555 112.315 127.578 110.961 125.625C110.857 125.469 110.727 125.443 110.57 125.547C109.737 126.094 108.865 126.602 107.953 127.07C107.615 127.253 107.263 127.344 106.898 127.344C106.716 127.344 106.521 127.318 106.312 127.266C105.766 127.135 105.297 126.849 104.906 126.406C104.672 126.12 104.555 125.807 104.555 125.469C104.555 125.391 104.568 125.286 104.594 125.156C104.672 124.714 104.932 124.388 105.375 124.18C106.651 123.607 107.849 122.969 108.969 122.266C109.125 122.161 109.164 122.018 109.086 121.836C108.565 120.326 108.161 118.724 107.875 117.031C107.849 116.849 107.745 116.758 107.562 116.758H102.445C102.263 116.758 102.172 116.862 102.172 117.07V118.125C102.172 118.307 102.263 118.385 102.445 118.359L104.75 118.164C104.828 118.164 104.893 118.164 104.945 118.164C105.31 118.164 105.635 118.281 105.922 118.516C106.26 118.828 106.43 119.219 106.43 119.688C106.43 120.13 106.286 120.521 106 120.859C105.688 121.198 105.31 121.393 104.867 121.445L102.445 121.719C102.263 121.745 102.172 121.862 102.172 122.07V124.531C102.172 125.469 102.055 126.172 101.82 126.641C101.586 127.135 101.169 127.526 100.57 127.812C99.7891 128.125 98.5911 128.307 96.9766 128.359C96.9766 128.359 96.9635 128.359 96.9375 128.359C96.4688 128.359 96.0391 128.203 95.6484 127.891C95.2318 127.552 94.9323 127.122 94.75 126.602C94.6198 126.211 94.6719 125.846 94.9062 125.508C95.1406 125.169 95.4661 125.013 95.8828 125.039C96.0911 125.039 96.2734 125.039 96.4297 125.039C96.8724 125.039 97.1979 125.026 97.4062 125C97.6406 124.974 97.7969 124.922 97.875 124.844C97.9792 124.766 98.0312 124.622 98.0312 124.414V122.5C98.0312 122.292 97.9401 122.201 97.7578 122.227L94.0078 122.617C93.9557 122.617 93.8906 122.617 93.8125 122.617C93.4219 122.617 93.0703 122.487 92.7578 122.227C92.3151 121.888 92.0938 121.445 92.0938 120.898C92.0938 120.482 92.237 120.117 92.5234 119.805C92.8359 119.44 93.2266 119.232 93.6953 119.18C94.1901 119.154 94.9453 119.102 95.9609 119.023C96.9766 118.919 97.5755 118.854 97.7578 118.828C97.9401 118.802 98.0312 118.698 98.0312 118.516V117.07C98.0312 116.862 97.9401 116.758 97.7578 116.758H93.8516C93.4089 116.758 93.0312 116.602 92.7188 116.289C92.4062 115.977 92.25 115.599 92.25 115.156C92.25 114.714 92.4062 114.336 92.7188 114.023C93.0312 113.711 93.4089 113.555 93.8516 113.555H97.7578C97.9401 113.555 98.0312 113.464 98.0312 113.281V112.109C98.0312 111.901 97.9401 111.81 97.7578 111.836C96.6901 111.94 95.7005 112.018 94.7891 112.07C94.3724 112.096 93.9948 111.979 93.6562 111.719C93.3177 111.458 93.0703 111.12 92.9141 110.703C92.8099 110.365 92.849 110.052 93.0312 109.766C93.2135 109.453 93.474 109.284 93.8125 109.258C97.0417 108.971 99.7891 108.594 102.055 108.125C102.315 108.073 102.562 108.047 102.797 108.047C103.656 108.047 104.385 108.385 104.984 109.062C105.245 109.375 105.31 109.74 105.18 110.156C105.049 110.547 104.789 110.781 104.398 110.859C103.773 110.99 103.122 111.12 102.445 111.25C102.263 111.276 102.172 111.38 102.172 111.562V113.281C102.172 113.464 102.263 113.555 102.445 113.555H107.055C107.263 113.555 107.354 113.464 107.328 113.281C107.172 111.484 107.094 110.43 107.094 110.117C107.094 109.596 107.276 109.154 107.641 108.789C108.031 108.372 108.513 108.164 109.086 108.164C109.659 108.164 110.141 108.372 110.531 108.789C110.948 109.18 111.169 109.661 111.195 110.234C111.247 111.198 111.326 112.214 111.43 113.281C111.43 113.464 111.534 113.555 111.742 113.555H115.531C115.609 113.555 115.661 113.529 115.688 113.477C115.714 113.424 115.701 113.372 115.648 113.32C114.971 112.565 114.073 111.732 112.953 110.82C112.615 110.56 112.445 110.221 112.445 109.805C112.445 109.362 112.615 109.023 112.953 108.789C113.37 108.477 113.839 108.32 114.359 108.32C114.359 108.32 114.372 108.32 114.398 108.32C114.893 108.32 115.349 108.477 115.766 108.789C116.26 109.154 116.716 109.505 117.133 109.844C117.576 110.208 117.797 110.664 117.797 111.211C117.797 111.862 117.523 112.383 116.977 112.773L116.156 113.398C116.13 113.424 116.117 113.464 116.117 113.516C116.143 113.542 116.169 113.555 116.195 113.555H118.148C118.591 113.555 118.969 113.711 119.281 114.023C119.594 114.336 119.75 114.714 119.75 115.156C119.75 115.599 119.594 115.977 119.281 116.289C118.969 116.602 118.591 116.758 118.148 116.758H112.211C112.029 116.758 111.951 116.849 111.977 117.031C112.159 117.917 112.328 118.672 112.484 119.297C112.51 119.349 112.549 119.388 112.602 119.414C112.68 119.414 112.732 119.388 112.758 119.336C113.07 119.049 113.37 118.763 113.656 118.477ZM152.836 111.992C153.383 111.549 153.982 111.315 154.633 111.289C154.685 111.289 154.724 111.289 154.75 111.289C155.375 111.289 155.935 111.484 156.43 111.875L156.703 112.07C157.146 112.409 157.367 112.852 157.367 113.398C157.367 113.971 157.133 114.427 156.664 114.766C154.685 116.094 152.758 117.266 150.883 118.281C150.727 118.385 150.714 118.516 150.844 118.672C152.771 120.729 155.115 122.305 157.875 123.398C158.37 123.581 158.682 123.932 158.812 124.453C158.865 124.609 158.891 124.766 158.891 124.922C158.891 125.26 158.773 125.573 158.539 125.859C158.409 126.042 158.279 126.224 158.148 126.406C157.758 126.953 157.263 127.344 156.664 127.578C156.378 127.682 156.091 127.734 155.805 127.734C155.466 127.734 155.141 127.669 154.828 127.539C151.443 126.029 148.695 123.906 146.586 121.172C144.503 118.411 142.823 114.961 141.547 110.82C141.547 110.742 141.508 110.703 141.43 110.703C141.378 110.677 141.326 110.677 141.273 110.703C139.919 111.953 138.318 113.19 136.469 114.414C136.312 114.518 136.234 114.661 136.234 114.844V121.719C136.234 121.901 136.326 121.979 136.508 121.953C138.982 121.432 141.091 120.977 142.836 120.586C142.992 120.56 143.135 120.547 143.266 120.547C143.682 120.547 144.06 120.664 144.398 120.898C144.867 121.237 145.128 121.693 145.18 122.266C145.18 122.37 145.18 122.461 145.18 122.539C145.18 123.06 145.036 123.542 144.75 123.984C144.385 124.479 143.891 124.792 143.266 124.922C140.766 125.495 136.247 126.497 129.711 127.93C129.503 127.956 129.307 127.969 129.125 127.969C128.708 127.969 128.292 127.852 127.875 127.617C127.328 127.305 126.951 126.836 126.742 126.211C126.664 125.977 126.625 125.755 126.625 125.547C126.625 125.208 126.729 124.87 126.938 124.531C127.25 124.01 127.706 123.698 128.305 123.594C129.216 123.411 130.18 123.216 131.195 123.008C131.378 122.982 131.469 122.865 131.469 122.656V117.539C131.469 117.461 131.443 117.409 131.391 117.383C131.339 117.357 131.286 117.357 131.234 117.383C129.854 118.034 128.448 118.62 127.016 119.141C126.703 119.245 126.378 119.297 126.039 119.297C125.727 119.297 125.414 119.245 125.102 119.141C124.477 118.932 123.943 118.555 123.5 118.008C123.448 117.93 123.396 117.852 123.344 117.773C123.109 117.487 122.992 117.174 122.992 116.836C122.992 116.706 123.018 116.562 123.07 116.406C123.201 115.885 123.513 115.547 124.008 115.391C128.227 114.036 131.951 112.266 135.18 110.078C135.232 110.052 135.245 110.026 135.219 110C135.219 109.948 135.193 109.922 135.141 109.922H125.297C124.75 109.922 124.268 109.727 123.852 109.336C123.461 108.945 123.266 108.477 123.266 107.93C123.266 107.357 123.461 106.875 123.852 106.484C124.268 106.094 124.75 105.898 125.297 105.898H138.227C138.435 105.898 138.539 105.794 138.539 105.586V103.945C138.539 103.737 138.435 103.633 138.227 103.633H128.539C128.018 103.633 127.562 103.451 127.172 103.086C126.807 102.721 126.625 102.279 126.625 101.758C126.625 101.211 126.807 100.755 127.172 100.391C127.562 100.026 128.018 99.8438 128.539 99.8438H138.227C138.435 99.8438 138.539 99.7396 138.539 99.5312V98.0859C138.539 97.9036 138.435 97.8125 138.227 97.8125H126.781C126.234 97.8125 125.753 97.6172 125.336 97.2266C124.945 96.8099 124.75 96.3281 124.75 95.7812C124.75 95.2344 124.945 94.7656 125.336 94.375C125.753 93.9583 126.234 93.75 126.781 93.75H138.227C138.435 93.75 138.539 93.6589 138.539 93.4766V93.4375C138.539 92.7865 138.76 92.2396 139.203 91.7969C139.646 91.3542 140.193 91.1328 140.844 91.1328H140.961C141.612 91.1328 142.159 91.3542 142.602 91.7969C143.044 92.2396 143.266 92.7865 143.266 93.4375V93.4766C143.266 93.6589 143.37 93.75 143.578 93.75H155.336C155.909 93.75 156.391 93.9583 156.781 94.375C157.172 94.7656 157.367 95.2344 157.367 95.7812C157.367 96.3281 157.172 96.8099 156.781 97.2266C156.391 97.6172 155.909 97.8125 155.336 97.8125H143.578C143.37 97.8125 143.266 97.9036 143.266 98.0859V99.5312C143.266 99.7396 143.37 99.8438 143.578 99.8438H153.891C154.411 99.8438 154.854 100.026 155.219 100.391C155.609 100.755 155.805 101.211 155.805 101.758C155.805 102.279 155.609 102.721 155.219 103.086C154.854 103.451 154.411 103.633 153.891 103.633H143.578C143.37 103.633 143.266 103.737 143.266 103.945V105.586C143.266 105.794 143.37 105.898 143.578 105.898H156.625C157.172 105.898 157.641 106.094 158.031 106.484C158.448 106.875 158.656 107.357 158.656 107.93C158.656 108.477 158.448 108.945 158.031 109.336C157.641 109.727 157.172 109.922 156.625 109.922H146.195C146.143 109.922 146.091 109.948 146.039 110C145.987 110.052 145.974 110.117 146 110.195C146.625 112.018 147.354 113.633 148.188 115.039C148.266 115.195 148.396 115.221 148.578 115.117C150.115 114.076 151.534 113.034 152.836 111.992ZM176.586 111.133C176.977 111.68 177.172 112.279 177.172 112.93C177.172 113.633 176.964 114.258 176.547 114.805C176.26 115.169 175.909 115.352 175.492 115.352C175.44 115.352 175.388 115.352 175.336 115.352C174.815 115.299 174.438 115.052 174.203 114.609C173.786 113.776 173.318 112.878 172.797 111.914C172.771 111.862 172.732 111.849 172.68 111.875C172.654 111.875 172.641 111.888 172.641 111.914V126.211C172.641 126.81 172.419 127.331 171.977 127.773C171.534 128.216 171 128.438 170.375 128.438C169.776 128.438 169.255 128.216 168.812 127.773C168.37 127.331 168.148 126.81 168.148 126.211V113.477C168.148 113.451 168.135 113.438 168.109 113.438C168.083 113.438 168.07 113.451 168.07 113.477C167.185 115.924 166.273 117.969 165.336 119.609C165.128 120 164.815 120.195 164.398 120.195C164.346 120.195 164.307 120.195 164.281 120.195C163.786 120.143 163.422 119.896 163.188 119.453C163.135 119.349 163.083 119.245 163.031 119.141C162.745 118.568 162.602 117.956 162.602 117.305C162.602 116.576 162.784 115.885 163.148 115.234C165.128 111.979 166.625 108.242 167.641 104.023C167.693 103.815 167.628 103.711 167.445 103.711H165.102C164.503 103.711 163.982 103.503 163.539 103.086C163.122 102.643 162.914 102.122 162.914 101.523C162.914 100.924 163.122 100.417 163.539 100C163.982 99.5573 164.503 99.3359 165.102 99.3359H167.875C168.057 99.3359 168.148 99.2318 168.148 99.0234V93.3594C168.148 92.7344 168.37 92.2135 168.812 91.7969C169.255 91.3542 169.776 91.1328 170.375 91.1328C171 91.1328 171.534 91.3542 171.977 91.7969C172.419 92.2135 172.641 92.7344 172.641 93.3594V99.0234C172.641 99.2318 172.732 99.3359 172.914 99.3359H174.906C175.531 99.3359 176.052 99.5573 176.469 100C176.911 100.417 177.133 100.924 177.133 101.523C177.133 102.122 176.911 102.643 176.469 103.086C176.052 103.503 175.531 103.711 174.906 103.711H172.914C172.732 103.711 172.641 103.815 172.641 104.023V105.625C172.641 105.807 172.706 105.977 172.836 106.133C173.747 107.305 174.997 108.971 176.586 111.133ZM193.344 108.125C193.344 108.047 193.318 107.982 193.266 107.93C193.24 107.878 193.188 107.852 193.109 107.852H186.82C186.742 107.852 186.677 107.878 186.625 107.93C186.599 107.982 186.586 108.047 186.586 108.125C187.445 111.016 188.552 113.555 189.906 115.742C189.958 115.794 190.01 115.82 190.062 115.82C190.141 115.82 190.193 115.794 190.219 115.742C191.573 113.372 192.615 110.833 193.344 108.125ZM195.023 103.555C195.206 103.503 195.388 103.477 195.57 103.477C195.857 103.477 196.143 103.529 196.43 103.633L197.211 103.867C197.628 103.997 197.953 104.245 198.188 104.609C198.37 104.896 198.461 105.195 198.461 105.508C198.461 105.612 198.448 105.729 198.422 105.859C197.406 111.25 195.674 115.833 193.227 119.609C193.122 119.766 193.135 119.909 193.266 120.039C194.698 121.497 196.273 122.695 197.992 123.633C198.487 123.893 198.786 124.297 198.891 124.844C198.917 124.974 198.93 125.104 198.93 125.234C198.93 125.625 198.786 125.99 198.5 126.328C198.396 126.458 198.292 126.589 198.188 126.719C197.771 127.266 197.25 127.617 196.625 127.773C196.443 127.826 196.247 127.852 196.039 127.852C195.648 127.852 195.258 127.734 194.867 127.5C193.227 126.484 191.716 125.247 190.336 123.789C190.18 123.633 190.036 123.62 189.906 123.75C188.63 125.078 187.198 126.263 185.609 127.305C185.245 127.539 184.854 127.656 184.438 127.656C184.255 127.656 184.073 127.63 183.891 127.578C183.266 127.422 182.758 127.083 182.367 126.562C182.367 126.536 182.354 126.51 182.328 126.484C182.068 126.12 181.938 125.729 181.938 125.312C181.938 125.182 181.951 125.065 181.977 124.961C182.055 124.388 182.341 123.958 182.836 123.672C184.372 122.682 185.792 121.484 187.094 120.078C187.224 119.922 187.237 119.766 187.133 119.609C185.648 117.292 184.372 114.531 183.305 111.328C183.279 111.302 183.253 111.289 183.227 111.289C183.201 111.289 183.188 111.302 183.188 111.328C182.641 117.734 181.26 122.799 179.047 126.523C178.734 127.044 178.279 127.344 177.68 127.422C177.576 127.422 177.484 127.422 177.406 127.422C176.885 127.422 176.417 127.266 176 126.953C175.974 126.901 175.935 126.862 175.883 126.836C175.388 126.471 175.076 125.99 174.945 125.391C174.919 125.208 174.906 125.039 174.906 124.883C174.906 124.466 175.01 124.062 175.219 123.672C176.026 122.318 176.69 120.82 177.211 119.18C177.732 117.539 178.096 115.833 178.305 114.062C178.539 112.292 178.695 110.729 178.773 109.375C178.852 107.995 178.891 106.458 178.891 104.766V95.7812C178.891 95.1562 179.112 94.6224 179.555 94.1797C179.997 93.7109 180.544 93.4766 181.195 93.4766H196.703C197.328 93.4766 197.849 93.6979 198.266 94.1406C198.708 94.5573 198.93 95.0781 198.93 95.7031C198.93 96.3021 198.708 96.8229 198.266 97.2656C197.849 97.6823 197.328 97.8906 196.703 97.8906H183.734C183.526 97.8906 183.422 97.9818 183.422 98.1641V103.281C183.422 103.464 183.526 103.555 183.734 103.555H194.828C194.88 103.555 194.945 103.555 195.023 103.555Z" fill="white"/>
</svg>
